<svg width="50" height="517" viewBox="0 0 50 517" fill="none" xmlns="http://www.w3.org/2000/svg">
<g filter="url(#filter0_d_21_1006)">
<mask id="path-1-inside-1_21_1006" fill="white">
<path fill-rule="evenodd" clip-rule="evenodd" d="M40.5247 358.437C40.2527 359.005 39.7627 359.933 39.4347 360.501C38.8537 361.504 36.7487 368.377 35.7477 372.536C35.4747 373.671 34.9437 375.838 34.5677 377.351C34.1907 378.864 33.7657 383.197 33.6227 386.979C32.9917 403.585 32.4997 408.388 31.2667 409.948C30.5497 410.853 29.8947 413.794 29.8097 416.481C29.7257 419.168 29.1017 422.043 28.4237 422.869C27.7447 423.696 27.1897 425.612 27.1897 427.127C27.1897 428.643 26.7447 430.072 26.2017 430.303C25.6317 430.545 25.3937 432.803 25.6387 435.627C25.8727 438.325 25.6587 441.054 25.1627 441.691C24.6657 442.329 24.5527 443.052 24.9107 443.298C26.5467 444.424 28.3327 449.431 29.2297 455.411C29.7687 459.005 30.4777 463.261 30.8057 464.871C31.1327 466.48 31.0487 468.337 30.6177 468.997C30.1877 469.657 29.7737 473.138 29.6977 476.732C29.6227 480.325 29.0587 484.349 28.4447 485.673C27.8317 486.997 27.0357 489.386 26.6767 490.983C26.3177 492.579 25.1757 494.627 24.1397 495.533C23.1027 496.439 22.5187 497.362 22.8417 497.583C23.1637 497.805 22.7187 498.475 21.8517 499.071C20.9837 499.667 20.5157 500.587 20.8087 501.113C21.1027 501.64 20.8437 502.715 20.2317 503.501C19.3297 504.66 18.1597 504.93 14.0457 504.93C9.01569 504.93 8.97871 504.914 9.66071 503.045C10.0387 502.009 10.7857 500.975 11.3197 500.748C11.8537 500.521 12.2217 498.97 12.1367 497.303C12.0517 495.634 12.4607 492.258 13.0457 489.799C14.0907 485.404 14.0857 482.473 13.0297 481.173C12.7357 480.811 12.3887 478.664 12.2587 476.402C12.1297 474.14 11.7967 472.037 11.5207 471.729C11.2437 471.422 11.4477 470.796 11.9737 470.34C13.1467 469.323 13.2267 459.479 12.0707 458.455C10.7947 457.325 10.7267 438.034 11.9927 436.408C12.5957 435.632 12.9887 432.108 12.8817 428.427C12.7097 422.508 12.9247 421.617 14.9957 419.686C16.6337 418.159 17.0897 417.094 16.5697 416.013C15.4737 413.734 16.0457 409.704 17.9077 406.58C18.4707 405.635 18.7227 403.896 18.4667 402.717C18.1997 401.486 18.6897 399.657 19.6167 398.424C20.6337 397.072 20.9847 395.599 20.5647 394.448C20.1117 393.206 20.2487 392.769 20.9917 393.085C21.7457 393.405 21.9257 392.64 21.5717 390.621C21.2897 389.01 20.5257 387.459 19.8737 387.175C19.0307 386.805 19.1067 386.653 20.1397 386.646C21.1887 386.638 21.2877 386.428 20.4957 385.883C19.7887 385.397 19.6997 384.365 20.2457 382.96C21.9567 378.554 22.6957 369.457 22.2387 358.437C22.1367 355.979 22.3627 351.801 22.7417 349.153C23.9657 340.589 23.3527 335.281 20.0387 325.769C19.5117 324.256 19.1167 322.131 19.1597 321.045C19.2037 319.961 18.7537 318.671 18.1597 318.179C17.5667 317.687 16.8377 314.087 16.5417 310.179C16.2447 306.27 15.6147 302.749 15.1417 302.353C13.8257 301.251 12.6097 294.652 12.8017 289.662C12.8967 287.203 12.5177 284.804 11.9597 284.331C11.2487 283.729 11.3227 283.472 12.2047 283.472C13.1577 283.472 13.2847 282.508 12.7257 279.517C12.3187 277.342 11.8597 272.158 11.7047 267.997C11.4457 261.058 11.0747 257.802 9.6627 250.116C8.8587 245.739 9.14471 237.503 10.2157 234.217C10.8897 232.149 10.8527 230.281 10.0977 228.278C8.0117 222.741 7.45472 217.219 8.69072 214.314C9.43972 212.553 9.55171 210.92 8.99571 209.885C7.85471 207.764 9.0087 188.508 10.3437 187.402C10.9037 186.938 11.1237 186.292 10.8317 185.968C10.5397 185.644 10.9497 183.386 11.7417 180.952C12.5327 178.517 13.4117 175.442 13.6937 174.118C14.6407 169.672 15.4147 167.59 16.4447 166.71C17.0087 166.23 17.5347 164.373 17.6147 162.584C17.6957 160.795 18.0537 159.006 18.4117 158.609C19.0627 157.884 20.9557 150.831 21.5397 146.952C21.7107 145.817 22.8427 143.496 24.0567 141.794C25.4787 139.798 26.2427 137.477 26.2067 135.26C26.1757 133.369 26.3537 130.583 26.6007 129.07C27.3697 124.369 28.5077 114.008 28.4127 112.564C28.1047 107.865 26.9047 102.631 26.2047 102.929C25.7507 103.122 25.6027 102.119 25.8747 100.7C26.1667 99.1774 25.6907 96.8535 24.7117 95.0261C21.6917 89.392 20.5817 85.6355 19.8337 78.5199C19.7347 77.5743 19.3147 76.4333 18.9007 75.9842C18.4877 75.5351 17.6897 72.6458 17.1277 69.5626C16.3927 65.5337 15.3607 63.1534 13.4547 61.0949C11.0677 58.5151 10.7987 57.5647 10.7467 51.5179C10.6987 45.8914 10.4507 44.8679 9.2137 45.1946C8.3287 45.4278 8.59772 44.9478 9.88472 43.9987C11.8467 42.5495 11.9797 41.9092 11.4327 36.5667C11.1037 33.3514 10.9757 28.8638 11.1477 26.5942C11.6277 20.2689 11.5547 15.7985 10.9327 13.5268C10.6217 12.392 9.9357 9.99313 9.40771 8.19671L8.44772 4.92984L13.6877 4.92984L18.9277 4.92984L19.5477 7.50894C19.8887 8.92709 20.1727 10.9925 20.1787 12.097C20.1847 13.2022 20.9357 14.6733 21.8487 15.3666C23.2167 16.4065 23.3017 16.9374 22.3357 18.3954C21.6917 19.3679 21.3897 20.414 21.6647 20.7201C21.9397 21.0261 21.7057 22.9821 21.1457 25.0667C20.3107 28.1733 20.4287 29.3968 21.7997 31.8521C22.7197 33.4993 23.5607 36.24 23.6687 37.9422C23.7767 39.6444 24.5927 42.2751 25.4827 43.7882C26.3727 45.3012 27.0517 47.3129 26.9917 48.2586C26.9317 49.2043 27.2027 51.0571 27.5927 52.3769C28.1487 54.2579 28.8927 65.4209 29.2897 77.8322C29.3077 78.3996 29.7317 80.2565 30.2317 81.9587C30.7327 83.6609 31.4117 86.4278 31.7427 88.1073C32.0727 89.7868 33.2467 92.3796 34.3517 93.8693C35.4567 95.3583 36.6077 98.317 36.9107 100.444C37.2127 102.571 37.8777 104.675 38.3867 105.12C38.8967 105.565 39.2687 107.268 39.2137 108.903C39.0397 114.129 39.1557 115.017 40.1827 116.338C41.5657 118.116 41.4447 119.979 39.8037 122.154C38.8577 123.407 38.5277 125.721 38.7647 129.434C39.0037 133.18 38.6467 135.642 37.6187 137.334C36.6897 138.862 36.2807 141.144 36.5367 143.371C36.7637 145.34 36.5367 147.697 36.0337 148.609C35.5297 149.52 34.6987 151.996 34.1857 154.111C32.3037 161.873 31.9057 162.812 29.5987 164.934C28.3047 166.124 26.9487 168.445 26.5847 170.092C26.2217 171.739 25.3817 173.551 24.7187 174.118C21.6897 176.712 20.0977 189.773 22.3097 193.891C22.7867 194.781 22.7537 195.439 22.2307 195.439C21.7317 195.439 21.5967 196.29 21.9317 197.33C22.2667 198.37 22.3927 202.316 22.2107 206.099C21.8947 212.7 21.9017 233.983 22.2247 246.426C22.3097 249.692 21.8427 254.143 21.1857 256.317C19.9257 260.492 19.9317 260.509 24.4087 266.479C25.7557 268.274 26.0537 269.345 25.3637 269.917C23.1017 271.796 24.6547 299.511 27.2027 302.729C28.0437 303.792 28.6997 307.397 28.9207 312.167C29.2137 318.521 29.7107 320.563 31.7327 323.707C33.0837 325.808 34.1897 328.584 34.1897 329.874C34.1897 331.165 34.5897 332.391 35.0797 332.6C35.8637 332.933 36.5157 334.762 37.5457 339.524C37.7097 340.281 38.3317 341.983 38.9267 343.307C40.1407 346.005 41.2857 356.845 40.5247 358.437Z"/>
</mask>
<path fill-rule="evenodd" clip-rule="evenodd" d="M40.5247 358.437C40.2527 359.005 39.7627 359.933 39.4347 360.501C38.8537 361.504 36.7487 368.377 35.7477 372.536C35.4747 373.671 34.9437 375.838 34.5677 377.351C34.1907 378.864 33.7657 383.197 33.6227 386.979C32.9917 403.585 32.4997 408.388 31.2667 409.948C30.5497 410.853 29.8947 413.794 29.8097 416.481C29.7257 419.168 29.1017 422.043 28.4237 422.869C27.7447 423.696 27.1897 425.612 27.1897 427.127C27.1897 428.643 26.7447 430.072 26.2017 430.303C25.6317 430.545 25.3937 432.803 25.6387 435.627C25.8727 438.325 25.6587 441.054 25.1627 441.691C24.6657 442.329 24.5527 443.052 24.9107 443.298C26.5467 444.424 28.3327 449.431 29.2297 455.411C29.7687 459.005 30.4777 463.261 30.8057 464.871C31.1327 466.48 31.0487 468.337 30.6177 468.997C30.1877 469.657 29.7737 473.138 29.6977 476.732C29.6227 480.325 29.0587 484.349 28.4447 485.673C27.8317 486.997 27.0357 489.386 26.6767 490.983C26.3177 492.579 25.1757 494.627 24.1397 495.533C23.1027 496.439 22.5187 497.362 22.8417 497.583C23.1637 497.805 22.7187 498.475 21.8517 499.071C20.9837 499.667 20.5157 500.587 20.8087 501.113C21.1027 501.64 20.8437 502.715 20.2317 503.501C19.3297 504.66 18.1597 504.93 14.0457 504.93C9.01569 504.93 8.97871 504.914 9.66071 503.045C10.0387 502.009 10.7857 500.975 11.3197 500.748C11.8537 500.521 12.2217 498.97 12.1367 497.303C12.0517 495.634 12.4607 492.258 13.0457 489.799C14.0907 485.404 14.0857 482.473 13.0297 481.173C12.7357 480.811 12.3887 478.664 12.2587 476.402C12.1297 474.14 11.7967 472.037 11.5207 471.729C11.2437 471.422 11.4477 470.796 11.9737 470.34C13.1467 469.323 13.2267 459.479 12.0707 458.455C10.7947 457.325 10.7267 438.034 11.9927 436.408C12.5957 435.632 12.9887 432.108 12.8817 428.427C12.7097 422.508 12.9247 421.617 14.9957 419.686C16.6337 418.159 17.0897 417.094 16.5697 416.013C15.4737 413.734 16.0457 409.704 17.9077 406.58C18.4707 405.635 18.7227 403.896 18.4667 402.717C18.1997 401.486 18.6897 399.657 19.6167 398.424C20.6337 397.072 20.9847 395.599 20.5647 394.448C20.1117 393.206 20.2487 392.769 20.9917 393.085C21.7457 393.405 21.9257 392.64 21.5717 390.621C21.2897 389.01 20.5257 387.459 19.8737 387.175C19.0307 386.805 19.1067 386.653 20.1397 386.646C21.1887 386.638 21.2877 386.428 20.4957 385.883C19.7887 385.397 19.6997 384.365 20.2457 382.96C21.9567 378.554 22.6957 369.457 22.2387 358.437C22.1367 355.979 22.3627 351.801 22.7417 349.153C23.9657 340.589 23.3527 335.281 20.0387 325.769C19.5117 324.256 19.1167 322.131 19.1597 321.045C19.2037 319.961 18.7537 318.671 18.1597 318.179C17.5667 317.687 16.8377 314.087 16.5417 310.179C16.2447 306.27 15.6147 302.749 15.1417 302.353C13.8257 301.251 12.6097 294.652 12.8017 289.662C12.8967 287.203 12.5177 284.804 11.9597 284.331C11.2487 283.729 11.3227 283.472 12.2047 283.472C13.1577 283.472 13.2847 282.508 12.7257 279.517C12.3187 277.342 11.8597 272.158 11.7047 267.997C11.4457 261.058 11.0747 257.802 9.6627 250.116C8.8587 245.739 9.14471 237.503 10.2157 234.217C10.8897 232.149 10.8527 230.281 10.0977 228.278C8.0117 222.741 7.45472 217.219 8.69072 214.314C9.43972 212.553 9.55171 210.92 8.99571 209.885C7.85471 207.764 9.0087 188.508 10.3437 187.402C10.9037 186.938 11.1237 186.292 10.8317 185.968C10.5397 185.644 10.9497 183.386 11.7417 180.952C12.5327 178.517 13.4117 175.442 13.6937 174.118C14.6407 169.672 15.4147 167.59 16.4447 166.71C17.0087 166.23 17.5347 164.373 17.6147 162.584C17.6957 160.795 18.0537 159.006 18.4117 158.609C19.0627 157.884 20.9557 150.831 21.5397 146.952C21.7107 145.817 22.8427 143.496 24.0567 141.794C25.4787 139.798 26.2427 137.477 26.2067 135.26C26.1757 133.369 26.3537 130.583 26.6007 129.07C27.3697 124.369 28.5077 114.008 28.4127 112.564C28.1047 107.865 26.9047 102.631 26.2047 102.929C25.7507 103.122 25.6027 102.119 25.8747 100.7C26.1667 99.1774 25.6907 96.8535 24.7117 95.0261C21.6917 89.392 20.5817 85.6355 19.8337 78.5199C19.7347 77.5743 19.3147 76.4333 18.9007 75.9842C18.4877 75.5351 17.6897 72.6458 17.1277 69.5626C16.3927 65.5337 15.3607 63.1534 13.4547 61.0949C11.0677 58.5151 10.7987 57.5647 10.7467 51.5179C10.6987 45.8914 10.4507 44.8679 9.2137 45.1946C8.3287 45.4278 8.59772 44.9478 9.88472 43.9987C11.8467 42.5495 11.9797 41.9092 11.4327 36.5667C11.1037 33.3514 10.9757 28.8638 11.1477 26.5942C11.6277 20.2689 11.5547 15.7985 10.9327 13.5268C10.6217 12.392 9.9357 9.99313 9.40771 8.19671L8.44772 4.92984L13.6877 4.92984L18.9277 4.92984L19.5477 7.50894C19.8887 8.92709 20.1727 10.9925 20.1787 12.097C20.1847 13.2022 20.9357 14.6733 21.8487 15.3666C23.2167 16.4065 23.3017 16.9374 22.3357 18.3954C21.6917 19.3679 21.3897 20.414 21.6647 20.7201C21.9397 21.0261 21.7057 22.9821 21.1457 25.0667C20.3107 28.1733 20.4287 29.3968 21.7997 31.8521C22.7197 33.4993 23.5607 36.24 23.6687 37.9422C23.7767 39.6444 24.5927 42.2751 25.4827 43.7882C26.3727 45.3012 27.0517 47.3129 26.9917 48.2586C26.9317 49.2043 27.2027 51.0571 27.5927 52.3769C28.1487 54.2579 28.8927 65.4209 29.2897 77.8322C29.3077 78.3996 29.7317 80.2565 30.2317 81.9587C30.7327 83.6609 31.4117 86.4278 31.7427 88.1073C32.0727 89.7868 33.2467 92.3796 34.3517 93.8693C35.4567 95.3583 36.6077 98.317 36.9107 100.444C37.2127 102.571 37.8777 104.675 38.3867 105.12C38.8967 105.565 39.2687 107.268 39.2137 108.903C39.0397 114.129 39.1557 115.017 40.1827 116.338C41.5657 118.116 41.4447 119.979 39.8037 122.154C38.8577 123.407 38.5277 125.721 38.7647 129.434C39.0037 133.18 38.6467 135.642 37.6187 137.334C36.6897 138.862 36.2807 141.144 36.5367 143.371C36.7637 145.34 36.5367 147.697 36.0337 148.609C35.5297 149.52 34.6987 151.996 34.1857 154.111C32.3037 161.873 31.9057 162.812 29.5987 164.934C28.3047 166.124 26.9487 168.445 26.5847 170.092C26.2217 171.739 25.3817 173.551 24.7187 174.118C21.6897 176.712 20.0977 189.773 22.3097 193.891C22.7867 194.781 22.7537 195.439 22.2307 195.439C21.7317 195.439 21.5967 196.29 21.9317 197.33C22.2667 198.37 22.3927 202.316 22.2107 206.099C21.8947 212.7 21.9017 233.983 22.2247 246.426C22.3097 249.692 21.8427 254.143 21.1857 256.317C19.9257 260.492 19.9317 260.509 24.4087 266.479C25.7557 268.274 26.0537 269.345 25.3637 269.917C23.1017 271.796 24.6547 299.511 27.2027 302.729C28.0437 303.792 28.6997 307.397 28.9207 312.167C29.2137 318.521 29.7107 320.563 31.7327 323.707C33.0837 325.808 34.1897 328.584 34.1897 329.874C34.1897 331.165 34.5897 332.391 35.0797 332.6C35.8637 332.933 36.5157 334.762 37.5457 339.524C37.7097 340.281 38.3317 341.983 38.9267 343.307C40.1407 346.005 41.2857 356.845 40.5247 358.437Z" fill="white"/>
<path fill-rule="evenodd" clip-rule="evenodd" d="M40.5247 358.437C40.2527 359.005 39.7627 359.933 39.4347 360.501C38.8537 361.504 36.7487 368.377 35.7477 372.536C35.4747 373.671 34.9437 375.838 34.5677 377.351C34.1907 378.864 33.7657 383.197 33.6227 386.979C32.9917 403.585 32.4997 408.388 31.2667 409.948C30.5497 410.853 29.8947 413.794 29.8097 416.481C29.7257 419.168 29.1017 422.043 28.4237 422.869C27.7447 423.696 27.1897 425.612 27.1897 427.127C27.1897 428.643 26.7447 430.072 26.2017 430.303C25.6317 430.545 25.3937 432.803 25.6387 435.627C25.8727 438.325 25.6587 441.054 25.1627 441.691C24.6657 442.329 24.5527 443.052 24.9107 443.298C26.5467 444.424 28.3327 449.431 29.2297 455.411C29.7687 459.005 30.4777 463.261 30.8057 464.871C31.1327 466.48 31.0487 468.337 30.6177 468.997C30.1877 469.657 29.7737 473.138 29.6977 476.732C29.6227 480.325 29.0587 484.349 28.4447 485.673C27.8317 486.997 27.0357 489.386 26.6767 490.983C26.3177 492.579 25.1757 494.627 24.1397 495.533C23.1027 496.439 22.5187 497.362 22.8417 497.583C23.1637 497.805 22.7187 498.475 21.8517 499.071C20.9837 499.667 20.5157 500.587 20.8087 501.113C21.1027 501.64 20.8437 502.715 20.2317 503.501C19.3297 504.66 18.1597 504.93 14.0457 504.93C9.01569 504.93 8.97871 504.914 9.66071 503.045C10.0387 502.009 10.7857 500.975 11.3197 500.748C11.8537 500.521 12.2217 498.97 12.1367 497.303C12.0517 495.634 12.4607 492.258 13.0457 489.799C14.0907 485.404 14.0857 482.473 13.0297 481.173C12.7357 480.811 12.3887 478.664 12.2587 476.402C12.1297 474.14 11.7967 472.037 11.5207 471.729C11.2437 471.422 11.4477 470.796 11.9737 470.34C13.1467 469.323 13.2267 459.479 12.0707 458.455C10.7947 457.325 10.7267 438.034 11.9927 436.408C12.5957 435.632 12.9887 432.108 12.8817 428.427C12.7097 422.508 12.9247 421.617 14.9957 419.686C16.6337 418.159 17.0897 417.094 16.5697 416.013C15.4737 413.734 16.0457 409.704 17.9077 406.58C18.4707 405.635 18.7227 403.896 18.4667 402.717C18.1997 401.486 18.6897 399.657 19.6167 398.424C20.6337 397.072 20.9847 395.599 20.5647 394.448C20.1117 393.206 20.2487 392.769 20.9917 393.085C21.7457 393.405 21.9257 392.64 21.5717 390.621C21.2897 389.01 20.5257 387.459 19.8737 387.175C19.0307 386.805 19.1067 386.653 20.1397 386.646C21.1887 386.638 21.2877 386.428 20.4957 385.883C19.7887 385.397 19.6997 384.365 20.2457 382.96C21.9567 378.554 22.6957 369.457 22.2387 358.437C22.1367 355.979 22.3627 351.801 22.7417 349.153C23.9657 340.589 23.3527 335.281 20.0387 325.769C19.5117 324.256 19.1167 322.131 19.1597 321.045C19.2037 319.961 18.7537 318.671 18.1597 318.179C17.5667 317.687 16.8377 314.087 16.5417 310.179C16.2447 306.27 15.6147 302.749 15.1417 302.353C13.8257 301.251 12.6097 294.652 12.8017 289.662C12.8967 287.203 12.5177 284.804 11.9597 284.331C11.2487 283.729 11.3227 283.472 12.2047 283.472C13.1577 283.472 13.2847 282.508 12.7257 279.517C12.3187 277.342 11.8597 272.158 11.7047 267.997C11.4457 261.058 11.0747 257.802 9.6627 250.116C8.8587 245.739 9.14471 237.503 10.2157 234.217C10.8897 232.149 10.8527 230.281 10.0977 228.278C8.0117 222.741 7.45472 217.219 8.69072 214.314C9.43972 212.553 9.55171 210.92 8.99571 209.885C7.85471 207.764 9.0087 188.508 10.3437 187.402C10.9037 186.938 11.1237 186.292 10.8317 185.968C10.5397 185.644 10.9497 183.386 11.7417 180.952C12.5327 178.517 13.4117 175.442 13.6937 174.118C14.6407 169.672 15.4147 167.59 16.4447 166.71C17.0087 166.23 17.5347 164.373 17.6147 162.584C17.6957 160.795 18.0537 159.006 18.4117 158.609C19.0627 157.884 20.9557 150.831 21.5397 146.952C21.7107 145.817 22.8427 143.496 24.0567 141.794C25.4787 139.798 26.2427 137.477 26.2067 135.26C26.1757 133.369 26.3537 130.583 26.6007 129.07C27.3697 124.369 28.5077 114.008 28.4127 112.564C28.1047 107.865 26.9047 102.631 26.2047 102.929C25.7507 103.122 25.6027 102.119 25.8747 100.7C26.1667 99.1774 25.6907 96.8535 24.7117 95.0261C21.6917 89.392 20.5817 85.6355 19.8337 78.5199C19.7347 77.5743 19.3147 76.4333 18.9007 75.9842C18.4877 75.5351 17.6897 72.6458 17.1277 69.5626C16.3927 65.5337 15.3607 63.1534 13.4547 61.0949C11.0677 58.5151 10.7987 57.5647 10.7467 51.5179C10.6987 45.8914 10.4507 44.8679 9.2137 45.1946C8.3287 45.4278 8.59772 44.9478 9.88472 43.9987C11.8467 42.5495 11.9797 41.9092 11.4327 36.5667C11.1037 33.3514 10.9757 28.8638 11.1477 26.5942C11.6277 20.2689 11.5547 15.7985 10.9327 13.5268C10.6217 12.392 9.9357 9.99313 9.40771 8.19671L8.44772 4.92984L13.6877 4.92984L18.9277 4.92984L19.5477 7.50894C19.8887 8.92709 20.1727 10.9925 20.1787 12.097C20.1847 13.2022 20.9357 14.6733 21.8487 15.3666C23.2167 16.4065 23.3017 16.9374 22.3357 18.3954C21.6917 19.3679 21.3897 20.414 21.6647 20.7201C21.9397 21.0261 21.7057 22.9821 21.1457 25.0667C20.3107 28.1733 20.4287 29.3968 21.7997 31.8521C22.7197 33.4993 23.5607 36.24 23.6687 37.9422C23.7767 39.6444 24.5927 42.2751 25.4827 43.7882C26.3727 45.3012 27.0517 47.3129 26.9917 48.2586C26.9317 49.2043 27.2027 51.0571 27.5927 52.3769C28.1487 54.2579 28.8927 65.4209 29.2897 77.8322C29.3077 78.3996 29.7317 80.2565 30.2317 81.9587C30.7327 83.6609 31.4117 86.4278 31.7427 88.1073C32.0727 89.7868 33.2467 92.3796 34.3517 93.8693C35.4567 95.3583 36.6077 98.317 36.9107 100.444C37.2127 102.571 37.8777 104.675 38.3867 105.12C38.8967 105.565 39.2687 107.268 39.2137 108.903C39.0397 114.129 39.1557 115.017 40.1827 116.338C41.5657 118.116 41.4447 119.979 39.8037 122.154C38.8577 123.407 38.5277 125.721 38.7647 129.434C39.0037 133.18 38.6467 135.642 37.6187 137.334C36.6897 138.862 36.2807 141.144 36.5367 143.371C36.7637 145.34 36.5367 147.697 36.0337 148.609C35.5297 149.52 34.6987 151.996 34.1857 154.111C32.3037 161.873 31.9057 162.812 29.5987 164.934C28.3047 166.124 26.9487 168.445 26.5847 170.092C26.2217 171.739 25.3817 173.551 24.7187 174.118C21.6897 176.712 20.0977 189.773 22.3097 193.891C22.7867 194.781 22.7537 195.439 22.2307 195.439C21.7317 195.439 21.5967 196.29 21.9317 197.33C22.2667 198.37 22.3927 202.316 22.2107 206.099C21.8947 212.7 21.9017 233.983 22.2247 246.426C22.3097 249.692 21.8427 254.143 21.1857 256.317C19.9257 260.492 19.9317 260.509 24.4087 266.479C25.7557 268.274 26.0537 269.345 25.3637 269.917C23.1017 271.796 24.6547 299.511 27.2027 302.729C28.0437 303.792 28.6997 307.397 28.9207 312.167C29.2137 318.521 29.7107 320.563 31.7327 323.707C33.0837 325.808 34.1897 328.584 34.1897 329.874C34.1897 331.165 34.5897 332.391 35.0797 332.6C35.8637 332.933 36.5157 334.762 37.5457 339.524C37.7097 340.281 38.3317 341.983 38.9267 343.307C40.1407 346.005 41.2857 356.845 40.5247 358.437Z" stroke="white" stroke-width="3" mask="url(#path-1-inside-1_21_1006)"/>
</g>
<defs>
<filter id="filter0_d_21_1006" x="0.0404663" y="0.92981" width="49.0945" height="516" filterUnits="userSpaceOnUse" color-interpolation-filters="sRGB">
<feFlood flood-opacity="0" result="BackgroundImageFix"/>
<feColorMatrix in="SourceAlpha" type="matrix" values="0 0 0 0 0 0 0 0 0 0 0 0 0 0 0 0 0 0 127 0" result="hardAlpha"/>
<feOffset dy="4"/>
<feGaussianBlur stdDeviation="4"/>
<feComposite in2="hardAlpha" operator="out"/>
<feColorMatrix type="matrix" values="0 0 0 0 0 0 0 0 0 0 0 0 0 0 0 0 0 0 0.75 0"/>
<feBlend mode="normal" in2="BackgroundImageFix" result="effect1_dropShadow_21_1006"/>
<feBlend mode="normal" in="SourceGraphic" in2="effect1_dropShadow_21_1006" result="shape"/>
</filter>
</defs>
</svg>
