<svg width="50" height="517" viewBox="0 0 50 517" fill="none" xmlns="http://www.w3.org/2000/svg">
<g filter="url(#filter0_d_349_1255)">
<mask id="path-1-inside-1_349_1255" fill="white">
<path fill-rule="evenodd" clip-rule="evenodd" d="M10.3343 30.7208C12.5493 37.9732 13.0233 43.7428 12.0293 51.3535C11.5353 55.1362 11.4453 58.8501 11.8293 59.6066C12.2143 60.3631 12.0813 63.2153 11.5333 65.9443C10.7563 69.8198 10.8373 71.401 11.9043 73.1658C12.6553 74.4085 13.1573 75.8893 13.0213 76.4567C12.8853 77.0241 14.5813 78.9918 16.7923 80.8301C21.0633 84.3824 21.1953 84.749 19.8753 89.4477C19.2523 91.6657 19.4243 93.1183 20.5253 94.9292C22.0973 97.5179 21.6663 103.178 19.8363 103.956C19.2483 104.206 19.4443 105.655 20.3443 107.713C21.1503 109.556 21.8263 113.258 21.8453 115.94C21.8643 118.622 22.5253 123.293 23.3153 126.319C24.3433 130.264 24.4973 132.989 23.8593 135.948C23.3693 138.217 22.6663 143.387 22.2963 147.437C21.8383 152.456 21.1763 155.054 20.2173 155.602C19.4433 156.043 18.8103 157.506 18.8103 158.851C18.8103 160.197 18.2843 162.297 17.6413 163.519C16.7073 165.296 16.8143 167.098 18.1733 172.509C19.1093 176.231 19.8383 182.062 19.7953 185.466C19.6293 198.44 19.7003 202.862 20.1773 209.194C20.8583 218.23 21.4823 223.121 22.7223 229.139C23.3073 231.976 23.7553 235.535 23.7193 237.048C23.6823 238.561 24.0413 241.347 24.5173 243.238C24.9933 245.129 25.0203 248.311 24.5773 250.309C24.0953 252.483 24.1623 254.442 24.7443 255.19C25.3363 255.949 25.3563 256.686 24.7973 257.071C23.6883 257.834 23.5913 259.541 24.0953 269.373C24.3733 274.783 24.0853 277.624 23.0863 279.345C22.3183 280.669 21.7913 282.99 21.9163 284.503C22.7023 294.047 22.1033 299.145 19.9103 301.586C18.2113 303.477 17.7393 304.972 17.8763 308.031C18.1733 314.671 17.9963 321.47 17.4423 324.737C17.1533 326.439 16.6923 334.486 16.4183 342.619C15.9473 356.606 14.8633 365.621 13.3453 368.174C12.9723 368.801 13.4153 370.812 14.3283 372.644C15.8833 375.764 16.5533 387.836 15.7923 399.015C15.6763 400.717 16.0803 403.812 16.6893 405.893C17.2993 407.973 17.8683 412.925 17.9553 416.897C18.0913 423.137 17.7523 424.812 15.4613 429.225C13.8433 432.342 12.8103 435.772 12.8103 438.028C12.8103 440.061 12.2083 442.56 11.4713 443.582C9.34533 446.532 10.1533 457.657 12.8313 462.304C15.5173 466.964 15.6593 471.905 13.3153 479.081C11.8923 483.434 11.6953 485.777 12.3313 490.773C12.7693 494.209 13.0543 498.8 12.9653 500.975L12.8043 504.93L18.1483 504.93C23.4873 504.93 23.4953 504.926 24.6523 502.271C25.2893 500.809 25.8103 499.144 25.8103 498.572C25.8103 498.001 26.5333 497.12 27.4163 496.616C28.6603 495.906 28.8773 494.994 28.3793 492.577C27.3353 487.521 25.5623 467.878 25.6443 462.289C25.7563 454.647 26.1663 451.908 27.6213 449.083C28.4913 447.395 28.6163 446.121 27.9923 445.301C26.8893 443.85 27.1243 432.265 28.2943 430.416C29.1283 429.096 27.2993 421.109 25.1993 416.901C24.4133 415.325 24.3263 414.08 24.9473 413.283C25.6213 412.415 25.2763 411.131 23.7453 408.807C20.8433 404.404 20.8253 397.149 23.7043 392.825C24.8383 391.123 25.7763 389.071 25.7883 388.267C25.8003 387.462 26.5233 385.631 27.3943 384.197C28.6493 382.13 28.7403 381.232 27.8333 379.862C27.1163 378.779 26.9313 376.58 27.3373 373.96C27.8873 370.422 27.5803 369.052 25.3223 364.971C21.0193 357.194 20.7133 354.373 23.3703 346.993C25.1683 341.998 25.4623 340.08 24.6953 338.331C22.7403 333.871 24.6213 323.634 27.9003 320.888C28.3953 320.473 28.7573 317.378 28.7043 314.01C28.6513 310.642 29.1033 307.016 29.7093 305.951C30.3143 304.886 30.8243 302.875 30.8423 301.481C30.8663 299.521 31.6583 298.409 34.3313 296.58C37.7673 294.228 37.7853 294.184 37.2333 289.358C36.9273 286.688 35.9853 280.994 35.1383 276.706C33.4923 268.362 33.9643 265.491 37.8723 260.072C38.8333 258.739 39.3983 256.854 39.1293 255.883C38.8593 254.912 39.3403 252.49 40.1993 250.502C41.6353 247.177 41.6253 246.712 40.0843 244.718C39.1633 243.526 38.0863 240.848 37.6923 238.768C37.2973 236.687 36.2233 233.283 35.3053 231.202C32.9653 225.9 33.0623 218.426 35.5163 214.997C37.6293 212.044 37.4853 210.221 34.9833 208.282C33.7043 207.291 33.2823 205.045 32.9773 197.622C32.7663 192.449 32.1943 187.878 31.7073 187.464C31.2213 187.05 30.5323 179.003 30.1773 169.583L29.5323 152.454L32.1713 149.227C33.6613 147.404 34.8103 144.925 34.8103 143.53C34.8103 142.173 35.4853 139.95 36.3103 138.593C38.5333 134.933 38.1813 132.798 34.2873 126.328C32.3503 123.109 30.7743 119.314 30.7863 117.895C30.8693 107.954 31.4993 101.361 32.4793 100.177C33.6833 98.7235 33.1923 95.2696 31.6913 94.6314C31.2063 94.4257 30.8103 93.7524 30.8103 93.1362C30.8103 92.5193 29.0613 88.9009 26.9243 85.0956C20.9053 74.3803 20.5713 73.3466 20.8233 66.2249C20.9523 62.5846 21.0223 59.1424 20.9773 58.575C19.5923 40.7792 19.6573 38.2724 21.5723 35.773C22.9303 34 23.2183 32.9168 22.5503 32.0963C21.9923 31.4106 21.9333 29.337 22.4083 27.044C22.8503 24.9051 23.2883 20.2153 23.3823 16.6217C23.4763 13.0282 23.8853 8.92709 24.2913 7.50894L25.0293 4.92984L16.9003 4.92984L8.77232 4.92984L9.50331 6.8212C10.3093 8.90854 10.3103 8.52957 9.46531 18.685C9.03831 23.8123 9.29032 27.3026 10.3343 30.7208Z"/>
</mask>
<path fill-rule="evenodd" clip-rule="evenodd" d="M10.3343 30.7208C12.5493 37.9732 13.0233 43.7428 12.0293 51.3535C11.5353 55.1362 11.4453 58.8501 11.8293 59.6066C12.2143 60.3631 12.0813 63.2153 11.5333 65.9443C10.7563 69.8198 10.8373 71.401 11.9043 73.1658C12.6553 74.4085 13.1573 75.8893 13.0213 76.4567C12.8853 77.0241 14.5813 78.9918 16.7923 80.8301C21.0633 84.3824 21.1953 84.749 19.8753 89.4477C19.2523 91.6657 19.4243 93.1183 20.5253 94.9292C22.0973 97.5179 21.6663 103.178 19.8363 103.956C19.2483 104.206 19.4443 105.655 20.3443 107.713C21.1503 109.556 21.8263 113.258 21.8453 115.94C21.8643 118.622 22.5253 123.293 23.3153 126.319C24.3433 130.264 24.4973 132.989 23.8593 135.948C23.3693 138.217 22.6663 143.387 22.2963 147.437C21.8383 152.456 21.1763 155.054 20.2173 155.602C19.4433 156.043 18.8103 157.506 18.8103 158.851C18.8103 160.197 18.2843 162.297 17.6413 163.519C16.7073 165.296 16.8143 167.098 18.1733 172.509C19.1093 176.231 19.8383 182.062 19.7953 185.466C19.6293 198.44 19.7003 202.862 20.1773 209.194C20.8583 218.23 21.4823 223.121 22.7223 229.139C23.3073 231.976 23.7553 235.535 23.7193 237.048C23.6823 238.561 24.0413 241.347 24.5173 243.238C24.9933 245.129 25.0203 248.311 24.5773 250.309C24.0953 252.483 24.1623 254.442 24.7443 255.19C25.3363 255.949 25.3563 256.686 24.7973 257.071C23.6883 257.834 23.5913 259.541 24.0953 269.373C24.3733 274.783 24.0853 277.624 23.0863 279.345C22.3183 280.669 21.7913 282.99 21.9163 284.503C22.7023 294.047 22.1033 299.145 19.9103 301.586C18.2113 303.477 17.7393 304.972 17.8763 308.031C18.1733 314.671 17.9963 321.47 17.4423 324.737C17.1533 326.439 16.6923 334.486 16.4183 342.619C15.9473 356.606 14.8633 365.621 13.3453 368.174C12.9723 368.801 13.4153 370.812 14.3283 372.644C15.8833 375.764 16.5533 387.836 15.7923 399.015C15.6763 400.717 16.0803 403.812 16.6893 405.893C17.2993 407.973 17.8683 412.925 17.9553 416.897C18.0913 423.137 17.7523 424.812 15.4613 429.225C13.8433 432.342 12.8103 435.772 12.8103 438.028C12.8103 440.061 12.2083 442.56 11.4713 443.582C9.34533 446.532 10.1533 457.657 12.8313 462.304C15.5173 466.964 15.6593 471.905 13.3153 479.081C11.8923 483.434 11.6953 485.777 12.3313 490.773C12.7693 494.209 13.0543 498.8 12.9653 500.975L12.8043 504.93L18.1483 504.93C23.4873 504.93 23.4953 504.926 24.6523 502.271C25.2893 500.809 25.8103 499.144 25.8103 498.572C25.8103 498.001 26.5333 497.12 27.4163 496.616C28.6603 495.906 28.8773 494.994 28.3793 492.577C27.3353 487.521 25.5623 467.878 25.6443 462.289C25.7563 454.647 26.1663 451.908 27.6213 449.083C28.4913 447.395 28.6163 446.121 27.9923 445.301C26.8893 443.85 27.1243 432.265 28.2943 430.416C29.1283 429.096 27.2993 421.109 25.1993 416.901C24.4133 415.325 24.3263 414.08 24.9473 413.283C25.6213 412.415 25.2763 411.131 23.7453 408.807C20.8433 404.404 20.8253 397.149 23.7043 392.825C24.8383 391.123 25.7763 389.071 25.7883 388.267C25.8003 387.462 26.5233 385.631 27.3943 384.197C28.6493 382.13 28.7403 381.232 27.8333 379.862C27.1163 378.779 26.9313 376.58 27.3373 373.96C27.8873 370.422 27.5803 369.052 25.3223 364.971C21.0193 357.194 20.7133 354.373 23.3703 346.993C25.1683 341.998 25.4623 340.08 24.6953 338.331C22.7403 333.871 24.6213 323.634 27.9003 320.888C28.3953 320.473 28.7573 317.378 28.7043 314.01C28.6513 310.642 29.1033 307.016 29.7093 305.951C30.3143 304.886 30.8243 302.875 30.8423 301.481C30.8663 299.521 31.6583 298.409 34.3313 296.58C37.7673 294.228 37.7853 294.184 37.2333 289.358C36.9273 286.688 35.9853 280.994 35.1383 276.706C33.4923 268.362 33.9643 265.491 37.8723 260.072C38.8333 258.739 39.3983 256.854 39.1293 255.883C38.8593 254.912 39.3403 252.49 40.1993 250.502C41.6353 247.177 41.6253 246.712 40.0843 244.718C39.1633 243.526 38.0863 240.848 37.6923 238.768C37.2973 236.687 36.2233 233.283 35.3053 231.202C32.9653 225.9 33.0623 218.426 35.5163 214.997C37.6293 212.044 37.4853 210.221 34.9833 208.282C33.7043 207.291 33.2823 205.045 32.9773 197.622C32.7663 192.449 32.1943 187.878 31.7073 187.464C31.2213 187.05 30.5323 179.003 30.1773 169.583L29.5323 152.454L32.1713 149.227C33.6613 147.404 34.8103 144.925 34.8103 143.53C34.8103 142.173 35.4853 139.95 36.3103 138.593C38.5333 134.933 38.1813 132.798 34.2873 126.328C32.3503 123.109 30.7743 119.314 30.7863 117.895C30.8693 107.954 31.4993 101.361 32.4793 100.177C33.6833 98.7235 33.1923 95.2696 31.6913 94.6314C31.2063 94.4257 30.8103 93.7524 30.8103 93.1362C30.8103 92.5193 29.0613 88.9009 26.9243 85.0956C20.9053 74.3803 20.5713 73.3466 20.8233 66.2249C20.9523 62.5846 21.0223 59.1424 20.9773 58.575C19.5923 40.7792 19.6573 38.2724 21.5723 35.773C22.9303 34 23.2183 32.9168 22.5503 32.0963C21.9923 31.4106 21.9333 29.337 22.4083 27.044C22.8503 24.9051 23.2883 20.2153 23.3823 16.6217C23.4763 13.0282 23.8853 8.92709 24.2913 7.50894L25.0293 4.92984L16.9003 4.92984L8.77232 4.92984L9.50331 6.8212C10.3093 8.90854 10.3103 8.52957 9.46531 18.685C9.03831 23.8123 9.29032 27.3026 10.3343 30.7208Z" fill="white"/>
<path fill-rule="evenodd" clip-rule="evenodd" d="M10.3343 30.7208C12.5493 37.9732 13.0233 43.7428 12.0293 51.3535C11.5353 55.1362 11.4453 58.8501 11.8293 59.6066C12.2143 60.3631 12.0813 63.2153 11.5333 65.9443C10.7563 69.8198 10.8373 71.401 11.9043 73.1658C12.6553 74.4085 13.1573 75.8893 13.0213 76.4567C12.8853 77.0241 14.5813 78.9918 16.7923 80.8301C21.0633 84.3824 21.1953 84.749 19.8753 89.4477C19.2523 91.6657 19.4243 93.1183 20.5253 94.9292C22.0973 97.5179 21.6663 103.178 19.8363 103.956C19.2483 104.206 19.4443 105.655 20.3443 107.713C21.1503 109.556 21.8263 113.258 21.8453 115.94C21.8643 118.622 22.5253 123.293 23.3153 126.319C24.3433 130.264 24.4973 132.989 23.8593 135.948C23.3693 138.217 22.6663 143.387 22.2963 147.437C21.8383 152.456 21.1763 155.054 20.2173 155.602C19.4433 156.043 18.8103 157.506 18.8103 158.851C18.8103 160.197 18.2843 162.297 17.6413 163.519C16.7073 165.296 16.8143 167.098 18.1733 172.509C19.1093 176.231 19.8383 182.062 19.7953 185.466C19.6293 198.44 19.7003 202.862 20.1773 209.194C20.8583 218.23 21.4823 223.121 22.7223 229.139C23.3073 231.976 23.7553 235.535 23.7193 237.048C23.6823 238.561 24.0413 241.347 24.5173 243.238C24.9933 245.129 25.0203 248.311 24.5773 250.309C24.0953 252.483 24.1623 254.442 24.7443 255.19C25.3363 255.949 25.3563 256.686 24.7973 257.071C23.6883 257.834 23.5913 259.541 24.0953 269.373C24.3733 274.783 24.0853 277.624 23.0863 279.345C22.3183 280.669 21.7913 282.99 21.9163 284.503C22.7023 294.047 22.1033 299.145 19.9103 301.586C18.2113 303.477 17.7393 304.972 17.8763 308.031C18.1733 314.671 17.9963 321.47 17.4423 324.737C17.1533 326.439 16.6923 334.486 16.4183 342.619C15.9473 356.606 14.8633 365.621 13.3453 368.174C12.9723 368.801 13.4153 370.812 14.3283 372.644C15.8833 375.764 16.5533 387.836 15.7923 399.015C15.6763 400.717 16.0803 403.812 16.6893 405.893C17.2993 407.973 17.8683 412.925 17.9553 416.897C18.0913 423.137 17.7523 424.812 15.4613 429.225C13.8433 432.342 12.8103 435.772 12.8103 438.028C12.8103 440.061 12.2083 442.56 11.4713 443.582C9.34533 446.532 10.1533 457.657 12.8313 462.304C15.5173 466.964 15.6593 471.905 13.3153 479.081C11.8923 483.434 11.6953 485.777 12.3313 490.773C12.7693 494.209 13.0543 498.8 12.9653 500.975L12.8043 504.93L18.1483 504.93C23.4873 504.93 23.4953 504.926 24.6523 502.271C25.2893 500.809 25.8103 499.144 25.8103 498.572C25.8103 498.001 26.5333 497.12 27.4163 496.616C28.6603 495.906 28.8773 494.994 28.3793 492.577C27.3353 487.521 25.5623 467.878 25.6443 462.289C25.7563 454.647 26.1663 451.908 27.6213 449.083C28.4913 447.395 28.6163 446.121 27.9923 445.301C26.8893 443.85 27.1243 432.265 28.2943 430.416C29.1283 429.096 27.2993 421.109 25.1993 416.901C24.4133 415.325 24.3263 414.08 24.9473 413.283C25.6213 412.415 25.2763 411.131 23.7453 408.807C20.8433 404.404 20.8253 397.149 23.7043 392.825C24.8383 391.123 25.7763 389.071 25.7883 388.267C25.8003 387.462 26.5233 385.631 27.3943 384.197C28.6493 382.13 28.7403 381.232 27.8333 379.862C27.1163 378.779 26.9313 376.58 27.3373 373.96C27.8873 370.422 27.5803 369.052 25.3223 364.971C21.0193 357.194 20.7133 354.373 23.3703 346.993C25.1683 341.998 25.4623 340.08 24.6953 338.331C22.7403 333.871 24.6213 323.634 27.9003 320.888C28.3953 320.473 28.7573 317.378 28.7043 314.01C28.6513 310.642 29.1033 307.016 29.7093 305.951C30.3143 304.886 30.8243 302.875 30.8423 301.481C30.8663 299.521 31.6583 298.409 34.3313 296.58C37.7673 294.228 37.7853 294.184 37.2333 289.358C36.9273 286.688 35.9853 280.994 35.1383 276.706C33.4923 268.362 33.9643 265.491 37.8723 260.072C38.8333 258.739 39.3983 256.854 39.1293 255.883C38.8593 254.912 39.3403 252.49 40.1993 250.502C41.6353 247.177 41.6253 246.712 40.0843 244.718C39.1633 243.526 38.0863 240.848 37.6923 238.768C37.2973 236.687 36.2233 233.283 35.3053 231.202C32.9653 225.9 33.0623 218.426 35.5163 214.997C37.6293 212.044 37.4853 210.221 34.9833 208.282C33.7043 207.291 33.2823 205.045 32.9773 197.622C32.7663 192.449 32.1943 187.878 31.7073 187.464C31.2213 187.05 30.5323 179.003 30.1773 169.583L29.5323 152.454L32.1713 149.227C33.6613 147.404 34.8103 144.925 34.8103 143.53C34.8103 142.173 35.4853 139.95 36.3103 138.593C38.5333 134.933 38.1813 132.798 34.2873 126.328C32.3503 123.109 30.7743 119.314 30.7863 117.895C30.8693 107.954 31.4993 101.361 32.4793 100.177C33.6833 98.7235 33.1923 95.2696 31.6913 94.6314C31.2063 94.4257 30.8103 93.7524 30.8103 93.1362C30.8103 92.5193 29.0613 88.9009 26.9243 85.0956C20.9053 74.3803 20.5713 73.3466 20.8233 66.2249C20.9523 62.5846 21.0223 59.1424 20.9773 58.575C19.5923 40.7792 19.6573 38.2724 21.5723 35.773C22.9303 34 23.2183 32.9168 22.5503 32.0963C21.9923 31.4106 21.9333 29.337 22.4083 27.044C22.8503 24.9051 23.2883 20.2153 23.3823 16.6217C23.4763 13.0282 23.8853 8.92709 24.2913 7.50894L25.0293 4.92984L16.9003 4.92984L8.77232 4.92984L9.50331 6.8212C10.3093 8.90854 10.3103 8.52957 9.46531 18.685C9.03831 23.8123 9.29032 27.3026 10.3343 30.7208Z" stroke="white" stroke-width="3" mask="url(#path-1-inside-1_349_1255)"/>
</g>
<defs>
<filter id="filter0_d_349_1255" x="0.772324" y="0.92981" width="48.4864" height="516" filterUnits="userSpaceOnUse" color-interpolation-filters="sRGB">
<feFlood flood-opacity="0" result="BackgroundImageFix"/>
<feColorMatrix in="SourceAlpha" type="matrix" values="0 0 0 0 0 0 0 0 0 0 0 0 0 0 0 0 0 0 127 0" result="hardAlpha"/>
<feOffset dy="4"/>
<feGaussianBlur stdDeviation="4"/>
<feComposite in2="hardAlpha" operator="out"/>
<feColorMatrix type="matrix" values="0 0 0 0 0 0 0 0 0 0 0 0 0 0 0 0 0 0 0.75 0"/>
<feBlend mode="normal" in2="BackgroundImageFix" result="effect1_dropShadow_349_1255"/>
<feBlend mode="normal" in="SourceGraphic" in2="effect1_dropShadow_349_1255" result="shape"/>
</filter>
</defs>
</svg>
