<svg width="55" height="517" viewBox="0 0 55 517" fill="none" xmlns="http://www.w3.org/2000/svg">
<g filter="url(#filter0_d_21_1047)">
<mask id="path-1-inside-1_21_1047" fill="white">
<path fill-rule="evenodd" clip-rule="evenodd" d="M45.4155 30.7208C42.7852 37.9732 42.2224 43.7428 43.4027 51.3535C43.9894 55.1362 44.0962 58.8501 43.6402 59.6066C43.183 60.3631 43.341 63.2153 43.9917 65.9443C44.9144 69.8198 44.8182 71.401 43.5512 73.1658C42.6594 74.4085 42.0632 75.8893 42.2247 76.4567C42.3862 77.0241 40.3722 78.9918 37.7467 80.8301C32.6748 84.3824 32.5181 84.749 34.0856 89.4477C34.8254 91.6657 34.6212 93.1183 33.3137 94.9292C31.447 97.5179 31.9588 103.178 34.1319 103.956C34.8302 104.206 34.5974 105.655 33.5287 107.713C32.5715 109.556 31.7688 113.258 31.7462 115.94C31.7236 118.622 30.9387 123.293 30.0006 126.319C28.7798 130.264 28.597 132.989 29.3546 135.948C29.9365 138.217 30.7713 143.387 31.2107 147.437C31.7545 152.456 32.5407 155.054 33.6795 155.602C34.5986 156.043 35.3503 157.506 35.3503 158.851C35.3503 160.197 35.9749 162.297 36.7385 163.519C37.8476 165.296 37.7205 167.098 36.1067 172.509C34.9952 176.231 34.1295 182.062 34.1806 185.466C34.3777 198.44 34.2934 202.862 33.727 209.194C32.9183 218.23 32.1773 223.121 30.7048 229.139C30.0101 231.976 29.4781 235.535 29.5208 237.048C29.5648 238.561 29.1385 241.347 28.5732 243.238C28.008 245.129 27.9759 248.311 28.502 250.309C29.0743 252.483 28.9948 254.442 28.3036 255.19C27.6006 255.949 27.5769 256.686 28.2407 257.071C29.5576 257.834 29.6728 259.541 29.0743 269.373C28.7442 274.783 29.0862 277.624 30.2725 279.345C31.1845 280.669 31.8103 282.99 31.6619 284.503C30.7285 294.047 31.4398 299.145 34.044 301.586C36.0616 303.477 36.6221 304.972 36.4594 308.031C36.1067 314.671 36.3169 321.47 36.9748 324.737C37.318 326.439 37.8654 334.486 38.1908 342.619C38.7501 356.606 40.0373 365.621 41.84 368.174C42.2829 368.801 41.7568 370.812 40.6726 372.644C38.8261 375.764 38.0305 387.836 38.9341 399.015C39.0719 400.717 38.5921 403.812 37.869 405.893C37.1446 407.973 36.4689 412.925 36.3656 416.897C36.2041 423.137 36.6066 424.812 39.3272 429.225C41.2486 432.342 42.4753 435.772 42.4753 438.028C42.4753 440.061 43.1901 442.56 44.0653 443.582C46.59 446.532 45.6305 457.657 42.4503 462.304C39.2607 466.964 39.0921 471.905 41.8756 479.081C43.5654 483.434 43.7993 485.777 43.0441 490.773C42.524 494.209 42.1855 498.8 42.2912 500.975L42.4824 504.93L36.1364 504.93C29.7963 504.93 29.7868 504.926 28.4129 502.271C27.6565 500.809 27.0378 499.144 27.0378 498.572C27.0378 498.001 26.1792 497.12 25.1306 496.616C23.6534 495.906 23.3957 494.994 23.9871 492.577C25.2268 487.521 27.3323 467.878 27.2349 462.289C27.1019 454.647 26.615 451.908 24.8872 449.083C23.8541 447.395 23.7056 446.121 24.4466 445.301C25.7564 443.85 25.4774 432.265 24.088 430.416C23.0976 429.096 25.2696 421.109 27.7633 416.901C28.6967 415.325 28.8 414.08 28.0626 413.283C27.2622 412.415 27.6719 411.131 29.49 408.807C32.9361 404.404 32.9575 397.149 29.5386 392.825C28.192 391.123 27.0781 389.071 27.0639 388.267C27.0496 387.462 26.1911 385.631 25.1568 384.197C23.6664 382.13 23.5584 381.232 24.6355 379.862C25.4869 378.779 25.7066 376.58 25.2245 373.96C24.5713 370.422 24.9359 369.052 27.6173 364.971C32.7271 357.194 33.0905 354.373 29.9353 346.993C27.8001 341.998 27.451 340.08 28.3618 338.331C30.6834 333.871 28.4497 323.634 24.5559 320.888C23.9681 320.473 23.5382 317.378 23.6011 314.01C23.6641 310.642 23.1273 307.016 22.4077 305.951C21.6893 304.886 21.0836 302.875 21.0623 301.481C21.0338 299.521 20.0933 298.409 16.9191 296.58C12.8388 294.228 12.8174 294.184 13.4729 289.358C13.8363 286.688 14.9549 280.994 15.9608 276.706C17.9154 268.362 17.3549 265.491 12.7141 260.072C11.573 258.739 10.902 256.854 11.2214 255.883C11.5421 254.912 10.9709 252.49 9.95081 250.502C8.24556 247.177 8.25744 246.712 10.0874 244.718C11.1811 243.526 12.46 240.848 12.9279 238.768C13.3969 236.687 14.6723 233.283 15.7625 231.202C18.5412 225.9 18.426 218.426 15.5119 214.997C13.0027 212.044 13.1737 210.221 16.1448 208.282C17.6636 207.291 18.1648 205.045 18.5269 197.622C18.7775 192.449 19.4568 187.878 20.0351 187.464C20.6122 187.05 21.4304 179.003 21.8519 169.583L22.6179 152.454L19.4841 149.227C17.7147 147.404 16.3503 144.925 16.3503 143.53C16.3503 142.173 15.5487 139.95 14.569 138.593C11.9292 134.933 12.3472 132.798 16.9713 126.328C19.2715 123.109 21.143 119.314 21.1288 117.895C21.0302 107.954 20.2821 101.361 19.1183 100.177C17.6886 98.7235 18.2716 95.2696 20.0541 94.6314C20.63 94.4257 21.1003 93.7524 21.1003 93.1362C21.1003 92.5193 23.1772 88.9009 25.7149 85.0956C32.8625 74.3803 33.2591 73.3466 32.9598 66.2249C32.8067 62.5846 32.7235 59.1424 32.777 58.575C34.4216 40.7792 34.3445 38.2724 32.0704 35.773C30.4578 34 30.1158 32.9168 30.909 32.0963C31.5716 31.4106 31.6417 29.337 31.0776 27.044C30.5528 24.9051 30.0326 20.2153 29.921 16.6217C29.8094 13.0282 29.3237 8.92709 28.8416 7.50894L27.9652 4.92984L37.6184 4.92984L47.2704 4.92984L46.4024 6.8212C45.4452 8.90854 45.444 8.52957 46.4475 18.685C46.9545 23.8123 46.6553 27.3026 45.4155 30.7208Z"/>
</mask>
<path fill-rule="evenodd" clip-rule="evenodd" d="M45.4155 30.7208C42.7852 37.9732 42.2224 43.7428 43.4027 51.3535C43.9894 55.1362 44.0962 58.8501 43.6402 59.6066C43.183 60.3631 43.341 63.2153 43.9917 65.9443C44.9144 69.8198 44.8182 71.401 43.5512 73.1658C42.6594 74.4085 42.0632 75.8893 42.2247 76.4567C42.3862 77.0241 40.3722 78.9918 37.7467 80.8301C32.6748 84.3824 32.5181 84.749 34.0856 89.4477C34.8254 91.6657 34.6212 93.1183 33.3137 94.9292C31.447 97.5179 31.9588 103.178 34.1319 103.956C34.8302 104.206 34.5974 105.655 33.5287 107.713C32.5715 109.556 31.7688 113.258 31.7462 115.94C31.7236 118.622 30.9387 123.293 30.0006 126.319C28.7798 130.264 28.597 132.989 29.3546 135.948C29.9365 138.217 30.7713 143.387 31.2107 147.437C31.7545 152.456 32.5407 155.054 33.6795 155.602C34.5986 156.043 35.3503 157.506 35.3503 158.851C35.3503 160.197 35.9749 162.297 36.7385 163.519C37.8476 165.296 37.7205 167.098 36.1067 172.509C34.9952 176.231 34.1295 182.062 34.1806 185.466C34.3777 198.44 34.2934 202.862 33.727 209.194C32.9183 218.23 32.1773 223.121 30.7048 229.139C30.0101 231.976 29.4781 235.535 29.5208 237.048C29.5648 238.561 29.1385 241.347 28.5732 243.238C28.008 245.129 27.9759 248.311 28.502 250.309C29.0743 252.483 28.9948 254.442 28.3036 255.19C27.6006 255.949 27.5769 256.686 28.2407 257.071C29.5576 257.834 29.6728 259.541 29.0743 269.373C28.7442 274.783 29.0862 277.624 30.2725 279.345C31.1845 280.669 31.8103 282.99 31.6619 284.503C30.7285 294.047 31.4398 299.145 34.044 301.586C36.0616 303.477 36.6221 304.972 36.4594 308.031C36.1067 314.671 36.3169 321.47 36.9748 324.737C37.318 326.439 37.8654 334.486 38.1908 342.619C38.7501 356.606 40.0373 365.621 41.84 368.174C42.2829 368.801 41.7568 370.812 40.6726 372.644C38.8261 375.764 38.0305 387.836 38.9341 399.015C39.0719 400.717 38.5921 403.812 37.869 405.893C37.1446 407.973 36.4689 412.925 36.3656 416.897C36.2041 423.137 36.6066 424.812 39.3272 429.225C41.2486 432.342 42.4753 435.772 42.4753 438.028C42.4753 440.061 43.1901 442.56 44.0653 443.582C46.59 446.532 45.6305 457.657 42.4503 462.304C39.2607 466.964 39.0921 471.905 41.8756 479.081C43.5654 483.434 43.7993 485.777 43.0441 490.773C42.524 494.209 42.1855 498.8 42.2912 500.975L42.4824 504.93L36.1364 504.93C29.7963 504.93 29.7868 504.926 28.4129 502.271C27.6565 500.809 27.0378 499.144 27.0378 498.572C27.0378 498.001 26.1792 497.12 25.1306 496.616C23.6534 495.906 23.3957 494.994 23.9871 492.577C25.2268 487.521 27.3323 467.878 27.2349 462.289C27.1019 454.647 26.615 451.908 24.8872 449.083C23.8541 447.395 23.7056 446.121 24.4466 445.301C25.7564 443.85 25.4774 432.265 24.088 430.416C23.0976 429.096 25.2696 421.109 27.7633 416.901C28.6967 415.325 28.8 414.08 28.0626 413.283C27.2622 412.415 27.6719 411.131 29.49 408.807C32.9361 404.404 32.9575 397.149 29.5386 392.825C28.192 391.123 27.0781 389.071 27.0639 388.267C27.0496 387.462 26.1911 385.631 25.1568 384.197C23.6664 382.13 23.5584 381.232 24.6355 379.862C25.4869 378.779 25.7066 376.58 25.2245 373.96C24.5713 370.422 24.9359 369.052 27.6173 364.971C32.7271 357.194 33.0905 354.373 29.9353 346.993C27.8001 341.998 27.451 340.08 28.3618 338.331C30.6834 333.871 28.4497 323.634 24.5559 320.888C23.9681 320.473 23.5382 317.378 23.6011 314.01C23.6641 310.642 23.1273 307.016 22.4077 305.951C21.6893 304.886 21.0836 302.875 21.0623 301.481C21.0338 299.521 20.0933 298.409 16.9191 296.58C12.8388 294.228 12.8174 294.184 13.4729 289.358C13.8363 286.688 14.9549 280.994 15.9608 276.706C17.9154 268.362 17.3549 265.491 12.7141 260.072C11.573 258.739 10.902 256.854 11.2214 255.883C11.5421 254.912 10.9709 252.49 9.95081 250.502C8.24556 247.177 8.25744 246.712 10.0874 244.718C11.1811 243.526 12.46 240.848 12.9279 238.768C13.3969 236.687 14.6723 233.283 15.7625 231.202C18.5412 225.9 18.426 218.426 15.5119 214.997C13.0027 212.044 13.1737 210.221 16.1448 208.282C17.6636 207.291 18.1648 205.045 18.5269 197.622C18.7775 192.449 19.4568 187.878 20.0351 187.464C20.6122 187.05 21.4304 179.003 21.8519 169.583L22.6179 152.454L19.4841 149.227C17.7147 147.404 16.3503 144.925 16.3503 143.53C16.3503 142.173 15.5487 139.95 14.569 138.593C11.9292 134.933 12.3472 132.798 16.9713 126.328C19.2715 123.109 21.143 119.314 21.1288 117.895C21.0302 107.954 20.2821 101.361 19.1183 100.177C17.6886 98.7235 18.2716 95.2696 20.0541 94.6314C20.63 94.4257 21.1003 93.7524 21.1003 93.1362C21.1003 92.5193 23.1772 88.9009 25.7149 85.0956C32.8625 74.3803 33.2591 73.3466 32.9598 66.2249C32.8067 62.5846 32.7235 59.1424 32.777 58.575C34.4216 40.7792 34.3445 38.2724 32.0704 35.773C30.4578 34 30.1158 32.9168 30.909 32.0963C31.5716 31.4106 31.6417 29.337 31.0776 27.044C30.5528 24.9051 30.0326 20.2153 29.921 16.6217C29.8094 13.0282 29.3237 8.92709 28.8416 7.50894L27.9652 4.92984L37.6184 4.92984L47.2704 4.92984L46.4024 6.8212C45.4452 8.90854 45.444 8.52957 46.4475 18.685C46.9545 23.8123 46.6553 27.3026 45.4155 30.7208Z" fill="white"/>
<path fill-rule="evenodd" clip-rule="evenodd" d="M45.4155 30.7208C42.7852 37.9732 42.2224 43.7428 43.4027 51.3535C43.9894 55.1362 44.0962 58.8501 43.6402 59.6066C43.183 60.3631 43.341 63.2153 43.9917 65.9443C44.9144 69.8198 44.8182 71.401 43.5512 73.1658C42.6594 74.4085 42.0632 75.8893 42.2247 76.4567C42.3862 77.0241 40.3722 78.9918 37.7467 80.8301C32.6748 84.3824 32.5181 84.749 34.0856 89.4477C34.8254 91.6657 34.6212 93.1183 33.3137 94.9292C31.447 97.5179 31.9588 103.178 34.1319 103.956C34.8302 104.206 34.5974 105.655 33.5287 107.713C32.5715 109.556 31.7688 113.258 31.7462 115.94C31.7236 118.622 30.9387 123.293 30.0006 126.319C28.7798 130.264 28.597 132.989 29.3546 135.948C29.9365 138.217 30.7713 143.387 31.2107 147.437C31.7545 152.456 32.5407 155.054 33.6795 155.602C34.5986 156.043 35.3503 157.506 35.3503 158.851C35.3503 160.197 35.9749 162.297 36.7385 163.519C37.8476 165.296 37.7205 167.098 36.1067 172.509C34.9952 176.231 34.1295 182.062 34.1806 185.466C34.3777 198.44 34.2934 202.862 33.727 209.194C32.9183 218.23 32.1773 223.121 30.7048 229.139C30.0101 231.976 29.4781 235.535 29.5208 237.048C29.5648 238.561 29.1385 241.347 28.5732 243.238C28.008 245.129 27.9759 248.311 28.502 250.309C29.0743 252.483 28.9948 254.442 28.3036 255.19C27.6006 255.949 27.5769 256.686 28.2407 257.071C29.5576 257.834 29.6728 259.541 29.0743 269.373C28.7442 274.783 29.0862 277.624 30.2725 279.345C31.1845 280.669 31.8103 282.99 31.6619 284.503C30.7285 294.047 31.4398 299.145 34.044 301.586C36.0616 303.477 36.6221 304.972 36.4594 308.031C36.1067 314.671 36.3169 321.47 36.9748 324.737C37.318 326.439 37.8654 334.486 38.1908 342.619C38.7501 356.606 40.0373 365.621 41.84 368.174C42.2829 368.801 41.7568 370.812 40.6726 372.644C38.8261 375.764 38.0305 387.836 38.9341 399.015C39.0719 400.717 38.5921 403.812 37.869 405.893C37.1446 407.973 36.4689 412.925 36.3656 416.897C36.2041 423.137 36.6066 424.812 39.3272 429.225C41.2486 432.342 42.4753 435.772 42.4753 438.028C42.4753 440.061 43.1901 442.56 44.0653 443.582C46.59 446.532 45.6305 457.657 42.4503 462.304C39.2607 466.964 39.0921 471.905 41.8756 479.081C43.5654 483.434 43.7993 485.777 43.0441 490.773C42.524 494.209 42.1855 498.8 42.2912 500.975L42.4824 504.93L36.1364 504.93C29.7963 504.93 29.7868 504.926 28.4129 502.271C27.6565 500.809 27.0378 499.144 27.0378 498.572C27.0378 498.001 26.1792 497.12 25.1306 496.616C23.6534 495.906 23.3957 494.994 23.9871 492.577C25.2268 487.521 27.3323 467.878 27.2349 462.289C27.1019 454.647 26.615 451.908 24.8872 449.083C23.8541 447.395 23.7056 446.121 24.4466 445.301C25.7564 443.85 25.4774 432.265 24.088 430.416C23.0976 429.096 25.2696 421.109 27.7633 416.901C28.6967 415.325 28.8 414.08 28.0626 413.283C27.2622 412.415 27.6719 411.131 29.49 408.807C32.9361 404.404 32.9575 397.149 29.5386 392.825C28.192 391.123 27.0781 389.071 27.0639 388.267C27.0496 387.462 26.1911 385.631 25.1568 384.197C23.6664 382.13 23.5584 381.232 24.6355 379.862C25.4869 378.779 25.7066 376.58 25.2245 373.96C24.5713 370.422 24.9359 369.052 27.6173 364.971C32.7271 357.194 33.0905 354.373 29.9353 346.993C27.8001 341.998 27.451 340.08 28.3618 338.331C30.6834 333.871 28.4497 323.634 24.5559 320.888C23.9681 320.473 23.5382 317.378 23.6011 314.01C23.6641 310.642 23.1273 307.016 22.4077 305.951C21.6893 304.886 21.0836 302.875 21.0623 301.481C21.0338 299.521 20.0933 298.409 16.9191 296.58C12.8388 294.228 12.8174 294.184 13.4729 289.358C13.8363 286.688 14.9549 280.994 15.9608 276.706C17.9154 268.362 17.3549 265.491 12.7141 260.072C11.573 258.739 10.902 256.854 11.2214 255.883C11.5421 254.912 10.9709 252.49 9.95081 250.502C8.24556 247.177 8.25744 246.712 10.0874 244.718C11.1811 243.526 12.46 240.848 12.9279 238.768C13.3969 236.687 14.6723 233.283 15.7625 231.202C18.5412 225.9 18.426 218.426 15.5119 214.997C13.0027 212.044 13.1737 210.221 16.1448 208.282C17.6636 207.291 18.1648 205.045 18.5269 197.622C18.7775 192.449 19.4568 187.878 20.0351 187.464C20.6122 187.05 21.4304 179.003 21.8519 169.583L22.6179 152.454L19.4841 149.227C17.7147 147.404 16.3503 144.925 16.3503 143.53C16.3503 142.173 15.5487 139.95 14.569 138.593C11.9292 134.933 12.3472 132.798 16.9713 126.328C19.2715 123.109 21.143 119.314 21.1288 117.895C21.0302 107.954 20.2821 101.361 19.1183 100.177C17.6886 98.7235 18.2716 95.2696 20.0541 94.6314C20.63 94.4257 21.1003 93.7524 21.1003 93.1362C21.1003 92.5193 23.1772 88.9009 25.7149 85.0956C32.8625 74.3803 33.2591 73.3466 32.9598 66.2249C32.8067 62.5846 32.7235 59.1424 32.777 58.575C34.4216 40.7792 34.3445 38.2724 32.0704 35.773C30.4578 34 30.1158 32.9168 30.909 32.0963C31.5716 31.4106 31.6417 29.337 31.0776 27.044C30.5528 24.9051 30.0326 20.2153 29.921 16.6217C29.8094 13.0282 29.3237 8.92709 28.8416 7.50894L27.9652 4.92984L37.6184 4.92984L47.2704 4.92984L46.4024 6.8212C45.4452 8.90854 45.444 8.52957 46.4475 18.685C46.9545 23.8123 46.6553 27.3026 45.4155 30.7208Z" stroke="white" stroke-width="3" mask="url(#path-1-inside-1_21_1047)"/>
</g>
<defs>
<filter id="filter0_d_21_1047" x="0.692871" y="0.92981" width="54.5775" height="516" filterUnits="userSpaceOnUse" color-interpolation-filters="sRGB">
<feFlood flood-opacity="0" result="BackgroundImageFix"/>
<feColorMatrix in="SourceAlpha" type="matrix" values="0 0 0 0 0 0 0 0 0 0 0 0 0 0 0 0 0 0 127 0" result="hardAlpha"/>
<feOffset dy="4"/>
<feGaussianBlur stdDeviation="4"/>
<feComposite in2="hardAlpha" operator="out"/>
<feColorMatrix type="matrix" values="0 0 0 0 0 0 0 0 0 0 0 0 0 0 0 0 0 0 0.75 0"/>
<feBlend mode="normal" in2="BackgroundImageFix" result="effect1_dropShadow_21_1047"/>
<feBlend mode="normal" in="SourceGraphic" in2="effect1_dropShadow_21_1047" result="shape"/>
</filter>
</defs>
</svg>
