<svg width="70" height="517" viewBox="0 0 70 517" fill="none" xmlns="http://www.w3.org/2000/svg">
<g filter="url(#filter0_d_21_1010)">
<path fill-rule="evenodd" clip-rule="evenodd" d="M58.7877 53.4169C57.3872 55.9836 56.9088 59.6232 57.5224 63.0455C59.488 74.0042 58.1811 81.2711 54.2464 81.2711C53.2463 81.2711 52.8875 81.844 53.4474 82.5441C54.0072 83.2442 53.3399 85.7979 51.9636 88.2181C50.5891 90.639 49.7727 94.476 50.1505 96.7456C51.0207 101.963 47.9804 113.466 44.4271 118.41C41.1008 123.037 41.0679 144.965 44.3751 151.766C44.928 152.901 45.916 158.936 46.5729 165.178C47.2281 171.419 48.4293 177.747 49.2388 179.239C50.05 180.733 50.3585 182.181 49.9252 182.459C49.4936 182.737 49.8559 183.14 50.7312 183.355C51.6603 183.583 51.3015 185.094 49.8698 186.98C47.7516 189.774 47.7534 190.642 49.8854 193.343C51.8198 195.792 52.2392 200.299 51.8198 214.131C51.5251 223.845 50.7694 232.124 50.1384 232.529C49.5075 232.934 49.7345 233.266 50.6428 233.266C51.6464 233.266 51.7383 234.275 50.8751 235.845C46.8676 243.13 41.7248 262.389 43.3281 264.111C44.2815 265.134 44.4548 267.227 43.7233 268.881C43.0074 270.501 42.0039 276.011 41.4925 281.125C40.7073 288.985 41.0488 290.975 43.7078 293.997C46.0062 296.608 46.7255 299.146 46.3771 303.417C46.1153 306.632 45.7721 309.418 45.6144 309.607C45.4584 309.796 45.4428 310.57 45.5832 311.326C46.1257 314.274 47.632 315.796 50.005 315.796C51.9948 315.796 52.4091 317.022 52.1213 322.048C51.9237 325.486 52.2738 328.424 52.8978 328.578C53.5218 328.73 53.2792 330.173 52.3605 331.783C51.4418 333.393 51.2789 336.102 51.9965 337.805C53.7524 341.965 52.8216 346.697 49.901 348.466C48.5854 349.263 46.124 351.6 44.4305 353.66C41.3712 357.38 41.0557 362.503 42.4563 385.604C42.64 388.63 42.1824 392.653 41.4405 394.545C40.6987 396.436 40.2948 402.935 40.5444 408.988C41.1597 423.895 41.1493 425.842 40.4265 433.534C39.8216 439.974 39.9516 440.254 44.3005 441.854C49.1573 443.64 51.8856 447.87 50.2614 451.098C47.2506 457.088 44.4704 467.092 45.3267 468.867C45.7409 469.728 47.5782 471.07 49.4086 471.849C51.2373 472.629 53.1856 474.16 53.735 475.251C54.6572 477.08 50.9184 485.765 47.4691 489.799C46.6613 490.745 44.6905 494.552 43.0889 498.259C39.8129 505.844 36.6271 506.818 36.0377 500.417C35.8314 498.171 34.5609 495.25 33.2159 493.926C30.6089 491.362 30.5517 488.617 32.9281 479.827C35.6633 469.698 34.0062 455.468 29.2812 448.534C27.8633 446.453 26.6933 442.65 26.6829 440.082C26.6569 434.245 23.7657 423.593 20.4602 417.153C18.9869 414.283 17.5898 406.356 17.0906 398.025C16.4216 386.85 15.6468 383.344 13.4749 381.678C11.3637 380.057 10.9859 378.547 11.8716 375.263C12.5129 372.887 12.2425 369.781 11.2684 368.313C8.96996 364.852 7.65438 354.569 9.41717 353.843C11.8733 352.832 21.4621 345.089 21.4621 344.117C21.4621 342.867 31.4842 339.022 37.4469 337.985C44.7148 336.72 45.0546 334.498 39.0226 327.674C27.3919 314.517 25.2962 306.587 31.7408 300.101C35.1277 296.69 35.1433 296.478 32.2105 293.633C29.7076 291.208 29.2292 288.794 29.4805 279.835C29.6487 273.863 30.3247 268.138 30.9816 267.111C32.5607 264.65 35.5004 245.558 34.9752 241.175C34.4344 236.655 34.6754 230.655 35.646 224.481C36.2735 220.489 35.6304 218.544 32.4584 214.852C29.0333 210.863 28.4735 208.803 28.399 199.909C28.3522 194.235 27.6934 188.51 26.936 187.186C26.1802 185.862 26.2964 181.542 27.196 177.587C28.503 171.838 28.2776 169.147 26.0762 164.175C24.225 159.999 23.6305 155.922 24.2632 151.766C25.0501 146.606 24.6081 144.9 21.6008 141.514C14.6206 133.649 17.3507 125.098 30.0768 114.971L36.5578 109.813L34.9007 101.56C32.0961 87.5936 32.9905 73.2518 36.9876 68.117C38.8769 65.6906 40.4317 62.3192 40.4456 60.6245C40.4577 58.9299 40.5409 56.4602 40.6311 55.1363C41.0661 48.6445 38.8544 29.5152 37.213 25.5627C36.1903 23.1039 35.3496 17.4554 35.3427 13.0111C35.3305 6.27725 35.7639 4.92993 37.934 4.92993C39.3675 4.92993 41.8912 6.16791 43.5431 7.68097C45.195 9.19403 47.1432 10.432 47.8712 10.432C48.5992 10.432 49.1955 11.0352 49.1955 11.7724C49.1955 12.5097 51.6239 14.0138 54.5914 15.1143L59.9855 17.1149L58.1308 22.8859C56.0127 29.4753 56.836 39.5262 59.5244 39.8818C61.9979 40.2085 61.5559 48.3433 58.7877 53.4169Z" fill="white"/>
<path d="M51.3116 87.8474L51.3114 87.8478C50.5775 89.1404 50.0069 90.7812 49.6663 92.3826C49.3275 93.9757 49.2004 95.6053 49.4107 96.8688L50.1505 96.7456L49.4108 96.869C49.8187 99.3148 49.3115 103.367 48.2225 107.489C47.1367 111.598 45.5171 115.608 43.818 117.972C43.3309 118.65 42.9376 119.591 42.6151 120.68C42.2893 121.779 42.0217 123.078 41.8088 124.507C41.3829 127.365 41.1689 130.79 41.1635 134.271C41.1582 137.754 41.3616 141.311 41.7767 144.434C42.1893 147.538 42.8194 150.282 43.7006 152.094L43.7008 152.095C43.7937 152.285 43.9434 152.788 44.1268 153.624C44.3035 154.429 44.497 155.47 44.6949 156.678C45.0905 159.093 45.4999 162.148 45.8271 165.256C46.1566 168.396 46.6236 171.559 47.1112 174.129C47.3548 175.414 47.605 176.558 47.8475 177.481C48.0844 178.382 48.3298 179.136 48.5795 179.597L48.5798 179.597C48.9598 180.297 49.2092 180.964 49.3152 181.461C49.3624 181.683 49.3746 181.841 49.3708 181.939C49.2087 182.078 49.0518 182.282 49.0057 182.565C48.9435 182.947 49.1171 183.25 49.2804 183.432C49.5689 183.753 50.0345 183.949 50.4938 184.069C50.4942 184.078 50.4945 184.088 50.4944 184.1C50.494 184.164 50.4842 184.254 50.4561 184.372C50.3384 184.868 49.9609 185.62 49.2724 186.527L49.2721 186.527C48.2303 187.901 47.5309 189.008 47.5338 190.198C47.5366 191.394 48.2468 192.478 49.2967 193.807C50.1295 194.862 50.6989 196.426 50.9885 199.538C51.2779 202.648 51.2799 207.191 51.0701 214.109C50.9231 218.955 50.6612 223.437 50.3583 226.753C50.2066 228.413 50.0458 229.768 49.8861 230.726C49.8058 231.208 49.7289 231.57 49.6589 231.813C49.6368 231.89 49.6177 231.947 49.6026 231.987C49.4461 232.102 49.2908 232.246 49.1816 232.427C49.0198 232.694 48.9397 233.101 49.1946 233.473C49.3926 233.762 49.7001 233.879 49.8974 233.932C50.1216 233.992 50.3769 234.016 50.6428 234.016C50.6715 234.016 50.6937 234.017 50.7104 234.019C50.711 234.024 50.7115 234.029 50.712 234.034C50.7317 234.252 50.631 234.732 50.2179 235.483C48.1692 239.208 45.8631 245.915 44.2729 251.87C43.4758 254.856 42.8504 257.682 42.5254 259.883C42.3634 260.98 42.2723 261.945 42.2777 262.706C42.2804 263.086 42.3071 263.438 42.3704 263.742C42.4299 264.028 42.5401 264.365 42.7792 264.622L42.7793 264.622C43.1056 264.972 43.3479 265.57 43.4101 266.321C43.4714 267.062 43.3495 267.872 43.0374 268.578L43.0373 268.578C42.6379 269.482 42.1955 271.351 41.7934 273.558C41.3854 275.798 41.0039 278.473 40.7463 281.05L41.4925 281.125L40.7462 281.05C40.3547 284.97 40.2301 287.53 40.5695 289.502C40.92 291.54 41.7578 292.916 43.1447 294.492L43.1448 294.492C44.2354 295.731 44.9261 296.922 45.3134 298.289C45.7036 299.666 45.7997 301.27 45.6295 303.356L45.6295 303.356C45.4993 304.956 45.349 306.445 45.2123 307.555C45.1439 308.111 45.0797 308.563 45.0243 308.884C44.9963 309.046 44.9725 309.162 44.9539 309.237C44.9526 309.242 44.9514 309.247 44.9503 309.251C44.8491 309.421 44.808 309.6 44.7873 309.708C44.7556 309.874 44.7412 310.057 44.7378 310.239C44.7309 310.606 44.7672 311.039 44.8458 311.463C45.1336 313.026 45.6924 314.302 46.5744 315.194C47.4734 316.103 48.6438 316.546 50.005 316.546C50.4373 316.546 50.6765 316.615 50.8224 316.705C50.95 316.784 51.0887 316.929 51.2068 317.278C51.3306 317.644 51.4138 318.183 51.4423 318.978C51.4705 319.765 51.444 320.757 51.3726 322.005L51.3116 87.8474ZM51.3116 87.8474C51.9727 86.6848 52.4561 85.502 52.7059 84.5464C52.8313 84.0666 52.8911 83.6696 52.8953 83.375C52.8993 83.098 52.8528 83.0058 52.855 83.0046C52.8551 83.0046 52.8554 83.0048 52.8559 83.0053C52.4919 82.5465 52.2355 81.8699 52.6265 81.2465C52.9792 80.6842 53.6579 80.5211 54.2464 80.5211C54.9598 80.5211 55.5704 80.2071 56.0966 79.5118C56.6423 78.7907 57.083 77.6692 57.3588 76.1351C57.9093 73.0731 57.7596 68.6162 56.7842 63.1779L57.5224 63.0455M51.3116 87.8474L57.5224 63.0455M57.5224 63.0455L56.7842 63.1778C56.1463 59.6204 56.6322 55.8014 58.1294 53.0576C59.4514 50.6346 60.2305 47.445 60.3728 44.8285C60.4441 43.5176 60.3521 42.4071 60.123 41.6341C59.8791 40.8112 59.5773 40.6453 59.4262 40.6253C58.8509 40.5493 58.3895 40.2199 58.0363 39.8077C57.6854 39.3981 57.4034 38.8655 57.1748 38.2726C56.7171 37.0849 56.4193 35.5109 56.2777 33.7828C55.9942 30.3246 56.3218 26.063 57.4168 22.6564L59.0519 17.5686L54.3306 15.8175C52.8102 15.2536 51.4144 14.5819 50.3857 13.9448C49.8742 13.628 49.4297 13.3052 49.1031 12.9931C48.9401 12.8373 48.7881 12.6669 48.6723 12.4843C48.5612 12.3092 48.4455 12.0634 48.4455 11.7724C48.4455 11.4409 48.1766 11.182 47.8712 11.182C47.5216 11.182 47.141 11.0466 46.8126 10.899C46.4589 10.74 46.0628 10.5184 45.6513 10.2569C44.8271 9.73303 43.8924 9.018 43.0365 8.23404C42.2698 7.53171 41.2871 6.88266 40.3264 6.41141C39.345 5.93005 38.4793 5.67993 37.934 5.67993C37.457 5.67993 37.1969 5.7565 37.0293 5.86877C36.8716 5.97443 36.6922 6.18179 36.5341 6.67441C36.1993 7.71811 36.0865 9.60943 36.0927 13.0098L35.3427 13.0111L57.5224 63.0455ZM51.3054 338.096L51.3056 338.096C52.1274 340.044 52.315 342.115 51.9665 343.888C51.6168 345.666 50.7447 347.078 49.5126 347.825C48.783 348.266 47.7911 349.096 46.7911 350.045C45.7804 351.005 44.7201 352.126 43.8512 353.183C42.1826 355.213 41.3138 357.601 41.0224 362.318C40.7328 367.005 41.008 374.109 41.7076 385.649L41.7076 385.649C41.7964 387.111 41.7305 388.829 41.5503 390.415C41.3686 392.014 41.0776 393.416 40.7423 394.271C40.5232 394.829 40.3496 395.663 40.2099 396.642C40.068 397.638 39.9542 398.837 39.8721 400.159C39.708 402.804 39.6692 405.967 39.795 409.019L40.5444 408.988L39.795 409.019C40.41 423.917 40.3978 425.823 39.6798 433.464C39.5293 435.066 39.4202 436.326 39.4151 437.322C39.41 438.314 39.5051 439.137 39.8259 439.826C40.1605 440.544 40.6989 441.032 41.4027 441.435C42.0816 441.824 42.9669 442.162 44.0417 442.557C46.3403 443.403 48.0956 444.813 49.081 446.341C50.0651 447.868 50.253 449.446 49.5915 450.761L49.5913 450.761C48.0585 453.811 46.5949 457.857 45.6213 461.362C45.1342 463.116 44.7644 464.753 44.571 466.076C44.4744 466.736 44.4193 467.335 44.4194 467.84C44.4194 468.318 44.467 468.811 44.6508 469.192L51.3054 338.096ZM51.3054 338.096C50.8897 337.11 50.7456 335.885 50.8163 334.714C50.8869 333.543 51.1774 332.343 51.7091 331.411C52.141 330.654 52.3898 329.976 52.468 329.51C52.4897 329.38 52.4951 329.286 52.4942 329.221M51.3054 338.096L52.4942 329.221M53.0651 475.588L53.0653 475.589C53.0927 475.643 53.1416 475.821 53.1229 476.199C53.1054 476.556 53.0321 477.011 52.9011 477.552C52.6396 478.632 52.1677 479.973 51.5525 481.402C50.3187 484.267 48.5571 487.372 46.899 489.312L46.8988 489.312C46.429 489.862 45.6966 491.131 44.9107 492.649C44.1084 494.198 43.2078 496.092 42.4004 497.961L42.4004 497.961C41.5943 499.828 40.8063 501.257 40.0812 502.255C39.3346 503.283 38.7327 503.744 38.3363 503.866C38.1663 503.918 38.0565 503.901 37.9702 503.863C37.8712 503.818 37.726 503.709 37.5629 503.449C37.2249 502.909 36.9286 501.912 36.7846 500.348C36.6724 499.127 36.2767 497.757 35.7416 496.526C35.2098 495.303 34.5091 494.146 33.742 493.391L33.7418 493.391C33.138 492.797 32.7095 492.22 32.4226 491.573C32.1359 490.927 31.973 490.17 31.9531 489.196C31.9124 487.212 32.4619 484.425 33.6521 480.022L33.6522 480.022C35.0496 474.848 35.3188 468.66 34.6472 462.896C33.977 457.144 32.3586 451.718 29.901 448.111L29.9009 448.111C29.2481 447.153 28.6286 445.758 28.1711 444.27C27.7138 442.783 27.4377 441.266 27.4329 440.079L27.4329 440.079C27.4195 437.065 26.6715 432.871 25.5252 428.647C24.3768 424.416 22.811 420.091 21.1275 416.811L20.4602 417.153L21.1275 416.811C20.4472 415.486 19.7441 412.886 19.1488 409.507C18.5584 406.156 18.0874 402.121 17.8393 397.981C17.505 392.396 17.1419 388.671 16.5786 386.124C16.0128 383.565 15.219 382.071 13.9317 381.083C12.9484 380.328 12.468 379.676 12.277 378.912C12.0773 378.113 12.1614 377.069 12.5957 375.458C12.5957 375.458 12.5957 375.458 12.5957 375.458L11.8716 375.263L53.0651 475.588ZM53.0651 475.588C52.8655 475.192 52.3462 474.619 51.5881 474.023C50.8494 473.442 49.9616 472.901 49.1149 472.539M53.0651 475.588L49.1149 472.539M32.2728 300.63L32.273 300.63C33.1123 299.784 33.7801 299.101 34.2428 298.518C34.6992 297.943 35.0464 297.359 35.0936 296.709C35.143 296.029 34.8552 295.449 34.4488 294.912C34.0494 294.384 33.4555 293.796 32.7327 293.095L32.7325 293.095C31.5839 291.982 30.9181 290.907 30.5484 289.039C30.166 287.106 30.1043 284.344 30.2302 279.856C30.3138 276.889 30.5234 273.988 30.7926 271.706C30.9273 270.565 31.0757 269.589 31.2284 268.843C31.3047 268.469 31.3802 268.163 31.4524 267.928C31.5285 267.68 31.5869 267.557 31.6129 267.516C31.613 267.516 31.6131 267.516 31.6133 267.516L30.9816 267.111L32.2728 300.63ZM32.2728 300.63C30.7306 302.182 29.7319 303.787 29.2457 305.5C28.7602 307.211 28.7709 309.083 29.3286 311.194C30.4535 315.453 33.783 320.614 39.5845 327.177C41.1016 328.894 42.249 330.354 42.9886 331.604C43.7165 332.834 44.1235 333.981 43.9636 335.027C43.794 336.137 43.0294 336.913 41.9501 337.467C40.8862 338.013 39.4105 338.404 37.5755 338.724L37.4469 337.985L32.2728 300.63ZM52.4942 329.221C52.2833 329.11 52.1425 328.942 52.0563 328.815C51.9341 328.634 51.8441 328.423 51.7743 328.215C51.6334 327.794 51.5298 327.247 51.4567 326.633C51.3095 325.396 51.2719 323.756 51.3725 322.005L52.4942 329.221ZM49.1149 472.539C48.1454 472.127 47.1788 471.568 46.3942 470.995M49.1149 472.539L46.3942 470.995M46.3942 470.995C46.0015 470.708 45.6445 470.41 45.3516 470.117M46.3942 470.995L45.3516 470.117M45.3516 470.117C45.067 469.833 44.8076 469.518 44.6512 469.193L45.3516 470.117ZM49.5691 232.062C49.5693 232.062 49.5722 232.058 49.5774 232.047C49.5715 232.056 49.5689 232.062 49.5691 232.062ZM49.364 182.009C49.3617 182.016 49.3609 182.02 49.3611 182.02C49.3613 182.021 49.3624 182.017 49.364 182.009ZM52.7136 329.305C52.7156 329.305 52.7176 329.306 52.7196 329.306L52.7188 329.306C52.7171 329.306 52.7154 329.305 52.7136 329.305Z" stroke="white" stroke-width="1.5"/>
</g>
<defs>
<filter id="filter0_d_21_1010" x="0.601868" y="0.929932" width="68.5446" height="515.719" filterUnits="userSpaceOnUse" color-interpolation-filters="sRGB">
<feFlood flood-opacity="0" result="BackgroundImageFix"/>
<feColorMatrix in="SourceAlpha" type="matrix" values="0 0 0 0 0 0 0 0 0 0 0 0 0 0 0 0 0 0 127 0" result="hardAlpha"/>
<feOffset dy="4"/>
<feGaussianBlur stdDeviation="4"/>
<feComposite in2="hardAlpha" operator="out"/>
<feColorMatrix type="matrix" values="0 0 0 0 0 0 0 0 0 0 0 0 0 0 0 0 0 0 0.75 0"/>
<feBlend mode="normal" in2="BackgroundImageFix" result="effect1_dropShadow_21_1010"/>
<feBlend mode="normal" in="SourceGraphic" in2="effect1_dropShadow_21_1010" result="shape"/>
</filter>
</defs>
</svg>
