<svg width="72" height="509" viewBox="0 0 72 509" fill="none" xmlns="http://www.w3.org/2000/svg">
<g filter="url(#filter0_d_21_1002)">
<mask id="path-1-inside-1_21_1002" fill="white">
<path fill-rule="evenodd" clip-rule="evenodd" d="M4.39711 485.29C4.80671 485.576 5.04006 488.773 4.916 492.395C4.77028 496.653 5.10012 499.324 5.84942 499.955C6.71883 500.686 9.66579 500.93 17.65 500.93L28.2908 500.93L27.3977 498.753C26.9054 497.556 26.7499 495.889 27.0521 495.049C27.3662 494.175 26.743 492.35 25.5919 490.773C23.5843 488.025 23.3982 487.012 23.478 479.265C23.5006 476.996 23.5243 473.297 23.5292 471.046C23.5341 468.795 23.863 466.783 24.2607 466.576C24.6575 466.368 25.0553 464.96 25.143 463.447C25.5476 456.541 26.0744 453.708 27.2166 452.303C28.0466 451.283 28.2632 449.263 27.8792 446.113C26.2221 432.493 26.2132 432.154 27.5041 432.154C28.2484 432.154 27.7867 431.422 26.3846 430.38C24.5128 428.988 23.9545 427.764 23.795 424.706C23.6838 422.56 23.4356 419.483 23.2436 417.867C23.0526 416.25 23.1186 414.772 23.3903 414.583C24.6674 413.69 24.0254 407.453 22.3752 404.728C20.3912 401.452 20.022 398.763 21.4713 398.138C21.9774 397.92 22.1556 396.726 21.8671 395.486C21.5442 394.097 22.007 392.186 23.0703 390.512C24.3464 388.503 24.754 386.216 24.6329 381.744C24.5384 378.248 24.95 375.067 25.6097 374.207C26.2369 373.388 26.674 371.091 26.5805 369.102C26.4269 365.825 26.7144 365.292 29.6358 363.42C35.7522 359.502 36.4956 358.898 38.4107 356.295C39.4681 354.858 40.9775 353.51 41.7652 353.298C42.5529 353.087 43.1979 352.483 43.1979 351.957C43.1979 351.43 43.8113 350.999 44.5596 350.999C45.3089 350.999 46.1537 350.38 46.4372 349.623C46.7917 348.676 47.7803 348.248 49.6107 348.248C51.4647 348.248 52.1126 347.961 51.7502 347.301C51.4637 346.78 51.6537 345.034 52.1726 343.421C52.8816 341.217 52.7092 339.21 51.4804 335.351C50.1483 331.168 50.0587 329.714 50.997 327.526C52.1677 324.795 51.6734 320.052 49.9868 317.851C48.9992 316.562 49.783 313.172 51.0698 313.172C52.209 313.172 53.3295 307.451 53.5609 300.448C53.8051 293.083 54.3023 291.411 57.5959 286.871C58.9724 284.972 59.8822 282.841 59.6173 282.133C59.3524 281.426 59.573 280.847 60.1067 280.847C61.3857 280.847 60.149 272.506 58.294 268.626C57.522 267.01 57.1361 265.411 57.4364 265.072C57.7367 264.733 58.2024 262.448 58.4732 259.993C58.8473 256.582 58.3826 254.016 56.498 249.103C54.8695 244.856 54.0326 240.861 54.0316 237.323C54.0296 233.554 53.558 231.466 52.4385 230.273C51.2392 228.994 50.999 227.688 51.4617 224.967C51.7995 222.981 51.6941 220.948 51.2274 220.448C50.7617 219.948 50.7361 218.401 51.1713 217.009C51.6065 215.618 52.4158 213.005 52.9682 211.204C53.5215 209.402 55.094 206.777 56.4626 205.37C57.8312 203.963 58.9517 202.293 58.9517 201.66C58.9517 200.847 59.5307 200.614 60.9209 200.868C63.4455 201.329 63.4681 200.102 61.0076 196.168C59.8231 194.274 58.9379 190.863 58.6199 186.968C58.2654 182.624 57.4955 179.903 56.0392 177.842C53.6633 174.481 53.4113 171.429 54.4914 159.114C55.0999 152.166 55.6651 149.989 57.4354 147.764C58.6406 146.25 59.9393 143.845 60.3223 142.419C60.7053 140.994 62.2827 138.821 63.8285 137.592C66.4633 135.495 66.6051 135.079 66.0961 130.901C65.7977 128.45 65.588 125.362 65.6303 124.039C65.6717 122.715 65.7308 118.536 65.7613 114.754C65.7908 110.971 66.2989 106.174 66.8887 104.094C68.6905 97.7359 67.8694 94.0736 62.9561 86.5557C59.9777 81.9986 59.6006 81.1575 59.3869 78.5873C59.1427 75.6692 54.9128 70.6822 52.1647 70.0729C51.0757 69.8315 49.9533 68.7744 49.6028 67.6589C49.2601 66.5674 48.3523 65.3108 47.5853 64.8666C44.7614 63.229 41.5466 57.1025 42.0941 54.3989C42.229 53.7345 41.5053 52.3418 40.4852 51.304C38.2137 48.9911 36.3174 44.5474 36.2701 41.4278C36.2209 38.1128 33.7859 31.4127 31.9013 29.4037C29.9557 27.3294 28.4069 18.4085 28.2514 8.3707L28.1352 0.929839L17.8322 0.929839L7.52817 0.92984L8.09235 2.8212C9.51414 7.59354 11.4617 12.4546 12.7063 14.3411C13.7125 15.8652 14.1379 20.5406 14.3348 32.2228C14.4825 40.923 14.6745 49.1245 14.7621 50.4484C14.8508 51.7723 14.6007 54.1644 14.2078 55.7634C13.6948 57.8535 13.9282 59.2792 15.0378 60.8336C15.8866 62.022 16.3838 63.2187 16.1416 63.4918C15.9004 63.7655 16.2115 65.1974 16.8328 66.6754C17.4541 68.1527 17.9917 69.6052 18.0261 69.9023C18.0616 70.2001 18.6573 70.6884 19.3495 70.9869C20.0426 71.2861 20.5084 72.456 20.3843 73.5873C20.2514 74.8122 21.0351 76.5014 22.325 77.7668C23.5164 78.9347 24.4901 80.2297 24.4901 80.6437C24.4901 81.0584 24.8702 81.3975 25.3349 81.3975C26.6002 81.3975 32.817 88.8893 34.3156 92.2201C35.0374 93.8219 36.4444 95.6492 37.4428 96.2813C38.4421 96.9127 39.2594 97.8253 39.2594 98.3095C39.2594 98.7937 39.7704 100.061 40.3956 101.126C41.9119 103.712 42.1945 104.384 42.87 107.012C43.186 108.244 43.7738 109.561 44.1766 109.939C44.5783 110.318 44.9377 111.655 44.9731 112.91C45.0095 114.166 45.5265 115.603 46.1222 116.105C46.7188 116.607 47.604 118.725 48.0904 120.814C48.7983 123.851 48.6093 125.455 47.1442 128.835C46.1369 131.159 44.8746 133.428 44.339 133.879C43.8034 134.33 43.3662 134.935 43.3682 135.225C43.378 137.161 40.9657 145.933 40.1367 146.972C39.5804 147.671 38.9394 150.765 38.7119 153.85C37.8721 165.274 37.3709 169.604 36.8451 169.971C35.9786 170.576 36.3065 178.438 37.3394 181.81C38.3338 185.058 39.8689 190.358 40.8269 193.846C41.139 194.981 42.0498 197.921 42.8513 200.38C46.9443 212.925 49.267 223.042 48.5955 225.396C47.8462 228.023 45.3364 233.926 44.1716 235.799C42.0311 239.241 40.5601 247.335 41.5624 250.153C42.1187 251.715 42.6031 258.719 42.6396 265.717L42.7055 278.44L39.9978 280.699C38.5091 281.942 37.2852 283.489 37.2783 284.138C37.2715 284.787 36.1234 286.71 34.7262 288.413C31.3903 292.477 28.5773 297.591 27.4184 301.703C26.9034 303.527 25.8479 306.003 25.0711 307.205C23.0408 310.347 20.5074 316.966 20.7683 318.444C21.0499 320.03 17.8479 330.019 16.1751 332.773C15.3214 334.18 14.9719 338.118 15.0782 345.153C15.2052 353.55 15.5617 355.917 16.9933 357.876C19.6104 361.457 20.148 367.437 18.2221 371.549C17.3369 373.439 16.6132 375.776 16.6132 376.744C16.6132 377.712 15.7635 380.284 14.7257 382.461C13.6879 384.638 12.5527 387.891 12.2021 389.691C11.8526 391.491 10.4761 395.205 9.14197 397.944C6.24129 403.9 4.58418 409.487 4.60486 413.241C4.69249 429.675 4.77422 430.625 6.132 430.989C6.89508 431.193 7.75662 432.39 8.04708 433.649C8.86726 437.197 11.2707 443.193 13.2025 446.51C14.6686 449.025 14.7789 450.036 13.8799 452.699C13.2892 454.45 12.5251 457.12 12.1834 458.633C11.8418 460.146 10.4732 463.705 9.14197 466.542C5.52745 474.25 2.9832 484.303 4.39711 485.29Z"/>
</mask>
<path fill-rule="evenodd" clip-rule="evenodd" d="M4.39711 485.29C4.80671 485.576 5.04006 488.773 4.916 492.395C4.77028 496.653 5.10012 499.324 5.84942 499.955C6.71883 500.686 9.66579 500.93 17.65 500.93L28.2908 500.93L27.3977 498.753C26.9054 497.556 26.7499 495.889 27.0521 495.049C27.3662 494.175 26.743 492.35 25.5919 490.773C23.5843 488.025 23.3982 487.012 23.478 479.265C23.5006 476.996 23.5243 473.297 23.5292 471.046C23.5341 468.795 23.863 466.783 24.2607 466.576C24.6575 466.368 25.0553 464.96 25.143 463.447C25.5476 456.541 26.0744 453.708 27.2166 452.303C28.0466 451.283 28.2632 449.263 27.8792 446.113C26.2221 432.493 26.2132 432.154 27.5041 432.154C28.2484 432.154 27.7867 431.422 26.3846 430.38C24.5128 428.988 23.9545 427.764 23.795 424.706C23.6838 422.56 23.4356 419.483 23.2436 417.867C23.0526 416.25 23.1186 414.772 23.3903 414.583C24.6674 413.69 24.0254 407.453 22.3752 404.728C20.3912 401.452 20.022 398.763 21.4713 398.138C21.9774 397.92 22.1556 396.726 21.8671 395.486C21.5442 394.097 22.007 392.186 23.0703 390.512C24.3464 388.503 24.754 386.216 24.6329 381.744C24.5384 378.248 24.95 375.067 25.6097 374.207C26.2369 373.388 26.674 371.091 26.5805 369.102C26.4269 365.825 26.7144 365.292 29.6358 363.42C35.7522 359.502 36.4956 358.898 38.4107 356.295C39.4681 354.858 40.9775 353.51 41.7652 353.298C42.5529 353.087 43.1979 352.483 43.1979 351.957C43.1979 351.43 43.8113 350.999 44.5596 350.999C45.3089 350.999 46.1537 350.38 46.4372 349.623C46.7917 348.676 47.7803 348.248 49.6107 348.248C51.4647 348.248 52.1126 347.961 51.7502 347.301C51.4637 346.78 51.6537 345.034 52.1726 343.421C52.8816 341.217 52.7092 339.21 51.4804 335.351C50.1483 331.168 50.0587 329.714 50.997 327.526C52.1677 324.795 51.6734 320.052 49.9868 317.851C48.9992 316.562 49.783 313.172 51.0698 313.172C52.209 313.172 53.3295 307.451 53.5609 300.448C53.8051 293.083 54.3023 291.411 57.5959 286.871C58.9724 284.972 59.8822 282.841 59.6173 282.133C59.3524 281.426 59.573 280.847 60.1067 280.847C61.3857 280.847 60.149 272.506 58.294 268.626C57.522 267.01 57.1361 265.411 57.4364 265.072C57.7367 264.733 58.2024 262.448 58.4732 259.993C58.8473 256.582 58.3826 254.016 56.498 249.103C54.8695 244.856 54.0326 240.861 54.0316 237.323C54.0296 233.554 53.558 231.466 52.4385 230.273C51.2392 228.994 50.999 227.688 51.4617 224.967C51.7995 222.981 51.6941 220.948 51.2274 220.448C50.7617 219.948 50.7361 218.401 51.1713 217.009C51.6065 215.618 52.4158 213.005 52.9682 211.204C53.5215 209.402 55.094 206.777 56.4626 205.37C57.8312 203.963 58.9517 202.293 58.9517 201.66C58.9517 200.847 59.5307 200.614 60.9209 200.868C63.4455 201.329 63.4681 200.102 61.0076 196.168C59.8231 194.274 58.9379 190.863 58.6199 186.968C58.2654 182.624 57.4955 179.903 56.0392 177.842C53.6633 174.481 53.4113 171.429 54.4914 159.114C55.0999 152.166 55.6651 149.989 57.4354 147.764C58.6406 146.25 59.9393 143.845 60.3223 142.419C60.7053 140.994 62.2827 138.821 63.8285 137.592C66.4633 135.495 66.6051 135.079 66.0961 130.901C65.7977 128.45 65.588 125.362 65.6303 124.039C65.6717 122.715 65.7308 118.536 65.7613 114.754C65.7908 110.971 66.2989 106.174 66.8887 104.094C68.6905 97.7359 67.8694 94.0736 62.9561 86.5557C59.9777 81.9986 59.6006 81.1575 59.3869 78.5873C59.1427 75.6692 54.9128 70.6822 52.1647 70.0729C51.0757 69.8315 49.9533 68.7744 49.6028 67.6589C49.2601 66.5674 48.3523 65.3108 47.5853 64.8666C44.7614 63.229 41.5466 57.1025 42.0941 54.3989C42.229 53.7345 41.5053 52.3418 40.4852 51.304C38.2137 48.9911 36.3174 44.5474 36.2701 41.4278C36.2209 38.1128 33.7859 31.4127 31.9013 29.4037C29.9557 27.3294 28.4069 18.4085 28.2514 8.3707L28.1352 0.929839L17.8322 0.929839L7.52817 0.92984L8.09235 2.8212C9.51414 7.59354 11.4617 12.4546 12.7063 14.3411C13.7125 15.8652 14.1379 20.5406 14.3348 32.2228C14.4825 40.923 14.6745 49.1245 14.7621 50.4484C14.8508 51.7723 14.6007 54.1644 14.2078 55.7634C13.6948 57.8535 13.9282 59.2792 15.0378 60.8336C15.8866 62.022 16.3838 63.2187 16.1416 63.4918C15.9004 63.7655 16.2115 65.1974 16.8328 66.6754C17.4541 68.1527 17.9917 69.6052 18.0261 69.9023C18.0616 70.2001 18.6573 70.6884 19.3495 70.9869C20.0426 71.2861 20.5084 72.456 20.3843 73.5873C20.2514 74.8122 21.0351 76.5014 22.325 77.7668C23.5164 78.9347 24.4901 80.2297 24.4901 80.6437C24.4901 81.0584 24.8702 81.3975 25.3349 81.3975C26.6002 81.3975 32.817 88.8893 34.3156 92.2201C35.0374 93.8219 36.4444 95.6492 37.4428 96.2813C38.4421 96.9127 39.2594 97.8253 39.2594 98.3095C39.2594 98.7937 39.7704 100.061 40.3956 101.126C41.9119 103.712 42.1945 104.384 42.87 107.012C43.186 108.244 43.7738 109.561 44.1766 109.939C44.5783 110.318 44.9377 111.655 44.9731 112.91C45.0095 114.166 45.5265 115.603 46.1222 116.105C46.7188 116.607 47.604 118.725 48.0904 120.814C48.7983 123.851 48.6093 125.455 47.1442 128.835C46.1369 131.159 44.8746 133.428 44.339 133.879C43.8034 134.33 43.3662 134.935 43.3682 135.225C43.378 137.161 40.9657 145.933 40.1367 146.972C39.5804 147.671 38.9394 150.765 38.7119 153.85C37.8721 165.274 37.3709 169.604 36.8451 169.971C35.9786 170.576 36.3065 178.438 37.3394 181.81C38.3338 185.058 39.8689 190.358 40.8269 193.846C41.139 194.981 42.0498 197.921 42.8513 200.38C46.9443 212.925 49.267 223.042 48.5955 225.396C47.8462 228.023 45.3364 233.926 44.1716 235.799C42.0311 239.241 40.5601 247.335 41.5624 250.153C42.1187 251.715 42.6031 258.719 42.6396 265.717L42.7055 278.44L39.9978 280.699C38.5091 281.942 37.2852 283.489 37.2783 284.138C37.2715 284.787 36.1234 286.71 34.7262 288.413C31.3903 292.477 28.5773 297.591 27.4184 301.703C26.9034 303.527 25.8479 306.003 25.0711 307.205C23.0408 310.347 20.5074 316.966 20.7683 318.444C21.0499 320.03 17.8479 330.019 16.1751 332.773C15.3214 334.18 14.9719 338.118 15.0782 345.153C15.2052 353.55 15.5617 355.917 16.9933 357.876C19.6104 361.457 20.148 367.437 18.2221 371.549C17.3369 373.439 16.6132 375.776 16.6132 376.744C16.6132 377.712 15.7635 380.284 14.7257 382.461C13.6879 384.638 12.5527 387.891 12.2021 389.691C11.8526 391.491 10.4761 395.205 9.14197 397.944C6.24129 403.9 4.58418 409.487 4.60486 413.241C4.69249 429.675 4.77422 430.625 6.132 430.989C6.89508 431.193 7.75662 432.39 8.04708 433.649C8.86726 437.197 11.2707 443.193 13.2025 446.51C14.6686 449.025 14.7789 450.036 13.8799 452.699C13.2892 454.45 12.5251 457.12 12.1834 458.633C11.8418 460.146 10.4732 463.705 9.14197 466.542C5.52745 474.25 2.9832 484.303 4.39711 485.29Z" fill="white"/>
<path fill-rule="evenodd" clip-rule="evenodd" d="M4.39711 485.29C4.80671 485.576 5.04006 488.773 4.916 492.395C4.77028 496.653 5.10012 499.324 5.84942 499.955C6.71883 500.686 9.66579 500.93 17.65 500.93L28.2908 500.93L27.3977 498.753C26.9054 497.556 26.7499 495.889 27.0521 495.049C27.3662 494.175 26.743 492.35 25.5919 490.773C23.5843 488.025 23.3982 487.012 23.478 479.265C23.5006 476.996 23.5243 473.297 23.5292 471.046C23.5341 468.795 23.863 466.783 24.2607 466.576C24.6575 466.368 25.0553 464.96 25.143 463.447C25.5476 456.541 26.0744 453.708 27.2166 452.303C28.0466 451.283 28.2632 449.263 27.8792 446.113C26.2221 432.493 26.2132 432.154 27.5041 432.154C28.2484 432.154 27.7867 431.422 26.3846 430.38C24.5128 428.988 23.9545 427.764 23.795 424.706C23.6838 422.56 23.4356 419.483 23.2436 417.867C23.0526 416.25 23.1186 414.772 23.3903 414.583C24.6674 413.69 24.0254 407.453 22.3752 404.728C20.3912 401.452 20.022 398.763 21.4713 398.138C21.9774 397.92 22.1556 396.726 21.8671 395.486C21.5442 394.097 22.007 392.186 23.0703 390.512C24.3464 388.503 24.754 386.216 24.6329 381.744C24.5384 378.248 24.95 375.067 25.6097 374.207C26.2369 373.388 26.674 371.091 26.5805 369.102C26.4269 365.825 26.7144 365.292 29.6358 363.42C35.7522 359.502 36.4956 358.898 38.4107 356.295C39.4681 354.858 40.9775 353.51 41.7652 353.298C42.5529 353.087 43.1979 352.483 43.1979 351.957C43.1979 351.43 43.8113 350.999 44.5596 350.999C45.3089 350.999 46.1537 350.38 46.4372 349.623C46.7917 348.676 47.7803 348.248 49.6107 348.248C51.4647 348.248 52.1126 347.961 51.7502 347.301C51.4637 346.78 51.6537 345.034 52.1726 343.421C52.8816 341.217 52.7092 339.21 51.4804 335.351C50.1483 331.168 50.0587 329.714 50.997 327.526C52.1677 324.795 51.6734 320.052 49.9868 317.851C48.9992 316.562 49.783 313.172 51.0698 313.172C52.209 313.172 53.3295 307.451 53.5609 300.448C53.8051 293.083 54.3023 291.411 57.5959 286.871C58.9724 284.972 59.8822 282.841 59.6173 282.133C59.3524 281.426 59.573 280.847 60.1067 280.847C61.3857 280.847 60.149 272.506 58.294 268.626C57.522 267.01 57.1361 265.411 57.4364 265.072C57.7367 264.733 58.2024 262.448 58.4732 259.993C58.8473 256.582 58.3826 254.016 56.498 249.103C54.8695 244.856 54.0326 240.861 54.0316 237.323C54.0296 233.554 53.558 231.466 52.4385 230.273C51.2392 228.994 50.999 227.688 51.4617 224.967C51.7995 222.981 51.6941 220.948 51.2274 220.448C50.7617 219.948 50.7361 218.401 51.1713 217.009C51.6065 215.618 52.4158 213.005 52.9682 211.204C53.5215 209.402 55.094 206.777 56.4626 205.37C57.8312 203.963 58.9517 202.293 58.9517 201.66C58.9517 200.847 59.5307 200.614 60.9209 200.868C63.4455 201.329 63.4681 200.102 61.0076 196.168C59.8231 194.274 58.9379 190.863 58.6199 186.968C58.2654 182.624 57.4955 179.903 56.0392 177.842C53.6633 174.481 53.4113 171.429 54.4914 159.114C55.0999 152.166 55.6651 149.989 57.4354 147.764C58.6406 146.25 59.9393 143.845 60.3223 142.419C60.7053 140.994 62.2827 138.821 63.8285 137.592C66.4633 135.495 66.6051 135.079 66.0961 130.901C65.7977 128.45 65.588 125.362 65.6303 124.039C65.6717 122.715 65.7308 118.536 65.7613 114.754C65.7908 110.971 66.2989 106.174 66.8887 104.094C68.6905 97.7359 67.8694 94.0736 62.9561 86.5557C59.9777 81.9986 59.6006 81.1575 59.3869 78.5873C59.1427 75.6692 54.9128 70.6822 52.1647 70.0729C51.0757 69.8315 49.9533 68.7744 49.6028 67.6589C49.2601 66.5674 48.3523 65.3108 47.5853 64.8666C44.7614 63.229 41.5466 57.1025 42.0941 54.3989C42.229 53.7345 41.5053 52.3418 40.4852 51.304C38.2137 48.9911 36.3174 44.5474 36.2701 41.4278C36.2209 38.1128 33.7859 31.4127 31.9013 29.4037C29.9557 27.3294 28.4069 18.4085 28.2514 8.3707L28.1352 0.929839L17.8322 0.929839L7.52817 0.92984L8.09235 2.8212C9.51414 7.59354 11.4617 12.4546 12.7063 14.3411C13.7125 15.8652 14.1379 20.5406 14.3348 32.2228C14.4825 40.923 14.6745 49.1245 14.7621 50.4484C14.8508 51.7723 14.6007 54.1644 14.2078 55.7634C13.6948 57.8535 13.9282 59.2792 15.0378 60.8336C15.8866 62.022 16.3838 63.2187 16.1416 63.4918C15.9004 63.7655 16.2115 65.1974 16.8328 66.6754C17.4541 68.1527 17.9917 69.6052 18.0261 69.9023C18.0616 70.2001 18.6573 70.6884 19.3495 70.9869C20.0426 71.2861 20.5084 72.456 20.3843 73.5873C20.2514 74.8122 21.0351 76.5014 22.325 77.7668C23.5164 78.9347 24.4901 80.2297 24.4901 80.6437C24.4901 81.0584 24.8702 81.3975 25.3349 81.3975C26.6002 81.3975 32.817 88.8893 34.3156 92.2201C35.0374 93.8219 36.4444 95.6492 37.4428 96.2813C38.4421 96.9127 39.2594 97.8253 39.2594 98.3095C39.2594 98.7937 39.7704 100.061 40.3956 101.126C41.9119 103.712 42.1945 104.384 42.87 107.012C43.186 108.244 43.7738 109.561 44.1766 109.939C44.5783 110.318 44.9377 111.655 44.9731 112.91C45.0095 114.166 45.5265 115.603 46.1222 116.105C46.7188 116.607 47.604 118.725 48.0904 120.814C48.7983 123.851 48.6093 125.455 47.1442 128.835C46.1369 131.159 44.8746 133.428 44.339 133.879C43.8034 134.33 43.3662 134.935 43.3682 135.225C43.378 137.161 40.9657 145.933 40.1367 146.972C39.5804 147.671 38.9394 150.765 38.7119 153.85C37.8721 165.274 37.3709 169.604 36.8451 169.971C35.9786 170.576 36.3065 178.438 37.3394 181.81C38.3338 185.058 39.8689 190.358 40.8269 193.846C41.139 194.981 42.0498 197.921 42.8513 200.38C46.9443 212.925 49.267 223.042 48.5955 225.396C47.8462 228.023 45.3364 233.926 44.1716 235.799C42.0311 239.241 40.5601 247.335 41.5624 250.153C42.1187 251.715 42.6031 258.719 42.6396 265.717L42.7055 278.44L39.9978 280.699C38.5091 281.942 37.2852 283.489 37.2783 284.138C37.2715 284.787 36.1234 286.71 34.7262 288.413C31.3903 292.477 28.5773 297.591 27.4184 301.703C26.9034 303.527 25.8479 306.003 25.0711 307.205C23.0408 310.347 20.5074 316.966 20.7683 318.444C21.0499 320.03 17.8479 330.019 16.1751 332.773C15.3214 334.18 14.9719 338.118 15.0782 345.153C15.2052 353.55 15.5617 355.917 16.9933 357.876C19.6104 361.457 20.148 367.437 18.2221 371.549C17.3369 373.439 16.6132 375.776 16.6132 376.744C16.6132 377.712 15.7635 380.284 14.7257 382.461C13.6879 384.638 12.5527 387.891 12.2021 389.691C11.8526 391.491 10.4761 395.205 9.14197 397.944C6.24129 403.9 4.58418 409.487 4.60486 413.241C4.69249 429.675 4.77422 430.625 6.132 430.989C6.89508 431.193 7.75662 432.39 8.04708 433.649C8.86726 437.197 11.2707 443.193 13.2025 446.51C14.6686 449.025 14.7789 450.036 13.8799 452.699C13.2892 454.45 12.5251 457.12 12.1834 458.633C11.8418 460.146 10.4732 463.705 9.14197 466.542C5.52745 474.25 2.9832 484.303 4.39711 485.29Z" stroke="white" stroke-width="3" mask="url(#path-1-inside-1_21_1002)"/>
</g>
<defs>
<filter id="filter0_d_21_1002" x="0" y="0.92981" width="71.7646" height="508" filterUnits="userSpaceOnUse" color-interpolation-filters="sRGB">
<feFlood flood-opacity="0" result="BackgroundImageFix"/>
<feColorMatrix in="SourceAlpha" type="matrix" values="0 0 0 0 0 0 0 0 0 0 0 0 0 0 0 0 0 0 127 0" result="hardAlpha"/>
<feOffset dy="4"/>
<feGaussianBlur stdDeviation="2"/>
<feComposite in2="hardAlpha" operator="out"/>
<feColorMatrix type="matrix" values="0 0 0 0 0 0 0 0 0 0 0 0 0 0 0 0 0 0 0.5 0"/>
<feBlend mode="normal" in2="BackgroundImageFix" result="effect1_dropShadow_21_1002"/>
<feBlend mode="normal" in="SourceGraphic" in2="effect1_dropShadow_21_1002" result="shape"/>
</filter>
</defs>
</svg>
