<svg width="246" height="58" viewBox="0 0 246 58" fill="none" xmlns="http://www.w3.org/2000/svg">
    <path id="Vector" fill-rule="evenodd" clip-rule="evenodd" d="M20.499 0.867996C24.573 1.751 24.951 3.876 21.167 4.633C17.255 5.415 17.226 6.806 21.095 8.155L24.108 9.205L20.923 12.853C19.172 14.859 15.976 17.805 13.822 19.401C10.748 21.678 10.003 22.813 10.36 24.678C10.698 26.448 10.083 27.575 7.947 29.095C4.399 31.622 4.345 33.888 7.697 39.607L10.312 44.071L5.156 50.785L0 57.5L103.791 57.804C160.875 57.972 212.553 57.821 218.631 57.468L229.681 56.828V53.285C229.681 50.401 230.369 49.19 233.381 46.774C237.551 43.429 237.998 41.589 235.081 39.768C232.228 37.986 232.575 37.107 236.831 35.345C243.245 32.688 243.545 32.046 239.864 28.855L236.581 26.009L240.236 22.754L243.892 19.5L243.365 11.911C243.031 7.089 243.26 3.533 243.995 2.161L245.151 0L131.366 0.117996C68.784 0.182996 18.894 0.520996 20.499 0.867996Z" fill="#FDD3C4"/>
</svg>
