<svg width="350" height="155" viewBox="0 0 350 155" fill="none" xmlns="http://www.w3.org/2000/svg">
<rect x="0.5" y="0.5" width="349" height="154" stroke="#FEE3E1"/>
<path d="M151.189 41.916C152.877 41.916 154.488 42.2383 156.023 42.8828C157.57 43.5156 158.947 44.4355 160.154 45.6426C161.35 46.8496 162.264 48.2207 162.896 49.7559C163.541 51.291 163.863 52.9023 163.863 54.5898C163.863 56.2891 163.541 57.9062 162.896 59.4414C162.264 60.9766 161.35 62.3477 160.154 63.5547C158.947 64.7617 157.57 65.6875 156.023 66.332C154.488 66.9648 152.877 67.2812 151.189 67.2812C149.502 67.2812 147.885 66.9648 146.338 66.332C144.803 65.6875 143.432 64.7617 142.225 63.5547C141.029 62.3477 140.109 60.9766 139.465 59.4414C138.832 57.9062 138.516 56.2891 138.516 54.5898C138.516 52.9023 138.832 51.291 139.465 49.7559C140.109 48.2207 141.029 46.8496 142.225 45.6426C143.432 44.4355 144.803 43.5156 146.338 42.8828C147.885 42.2383 149.502 41.916 151.189 41.916ZM155.338 65.9805C157.307 65.2305 158.754 64.0703 159.68 62.5C160.605 60.918 161.086 59.1484 161.121 57.1914C161.156 55.2227 160.822 53.2773 160.119 51.3555C159.416 49.4219 158.42 47.7168 157.131 46.2402C155.842 44.752 154.336 43.7031 152.613 43.0938C150.902 42.4844 149.045 42.5254 147.041 43.2168C145.072 43.9668 143.625 45.1328 142.699 46.7148C141.773 48.2852 141.293 50.0547 141.258 52.0234C141.223 53.9805 141.557 55.9258 142.26 57.8594C142.963 59.7812 143.959 61.4863 145.248 62.9746C146.537 64.4512 148.037 65.4941 149.748 66.1035C151.471 66.7129 153.334 66.6719 155.338 65.9805ZM184.219 42.0566H188.842V42.3555C188.303 42.3555 187.84 42.5371 187.453 42.9004C187.078 43.2637 186.867 43.7148 186.82 44.2539V57.4727C186.82 59.2422 186.381 60.8594 185.502 62.3242C184.635 63.7891 183.469 64.9609 182.004 65.8398C180.551 66.707 178.934 67.1406 177.152 67.1406C175.371 67.1406 173.748 66.707 172.283 65.8398C170.83 64.9609 169.664 63.7891 168.785 62.3242C167.918 60.8594 167.484 59.2422 167.484 57.4727V44.377C167.484 43.8145 167.285 43.334 166.887 42.9355C166.488 42.5371 166.008 42.3379 165.445 42.3379V42.0566H172.652V42.3379C172.113 42.3379 171.65 42.5195 171.264 42.8828C170.877 43.2461 170.66 43.6973 170.613 44.2363V57.4727C170.613 58.7266 170.719 59.9043 170.93 61.0059C171.152 62.1074 171.51 63.0742 172.002 63.9062C172.494 64.7383 173.162 65.3945 174.006 65.875C174.85 66.3438 175.898 66.5781 177.152 66.5781C178.828 66.5781 180.352 66.168 181.723 65.3477C183.105 64.5273 184.207 63.4316 185.027 62.0605C185.848 60.6777 186.258 59.1484 186.258 57.4727V44.377C186.258 43.8145 186.059 43.334 185.66 42.9355C185.262 42.5371 184.781 42.3379 184.219 42.3379V42.0566ZM209.953 65.4883C210.645 66.3203 211.488 66.7363 212.484 66.7363V67.0176H205.277V66.7363C205.617 66.7363 205.863 66.5898 206.016 66.2969C206.168 65.9922 206.145 65.6934 205.945 65.4004L199.969 57.6133H196.137V64.6973C196.137 65.2598 196.336 65.7402 196.734 66.1387C197.133 66.5371 197.619 66.7363 198.193 66.7363V67.0176H190.969V66.7363C191.531 66.7363 192.012 66.5371 192.41 66.1387C192.809 65.7402 193.008 65.2598 193.008 64.6973V44.5527C193.008 43.9902 192.809 43.5098 192.41 43.1113C192.012 42.7129 191.531 42.5137 190.969 42.5137V42.2324L203.678 42.1797C205.178 42.1797 206.531 42.5312 207.738 43.2344C208.957 43.9258 209.924 44.8574 210.639 46.0293C211.354 47.1895 211.711 48.4785 211.711 49.8965C211.711 51.9824 210.979 53.7637 209.514 55.2402C208.061 56.7051 206.197 57.4961 203.924 57.6133L209.953 65.4883ZM199.547 57.0508H203.027C203.18 57.0508 203.332 57.0449 203.484 57.0332C204.645 56.916 205.605 56.5 206.367 55.7852C207.141 55.0586 207.715 54.1562 208.09 53.0781C208.465 52 208.641 50.8691 208.617 49.6855C208.594 48.4902 208.371 47.3711 207.949 46.3281C207.527 45.2734 206.906 44.4121 206.086 43.7441C205.266 43.0762 204.246 42.7422 203.027 42.7422H196.137V57.0508H199.547ZM130.764 86.8359C131.842 87.9844 132.668 89.3086 133.242 90.8086C133.816 92.3086 134.104 93.9082 134.104 95.6074C134.104 97.2949 133.816 98.8945 133.242 100.406C132.668 101.906 131.842 103.225 130.764 104.361C129.662 105.51 128.361 106.395 126.861 107.016C125.291 107.672 123.586 108 121.746 108H111.48V107.719C112.043 107.719 112.523 107.52 112.922 107.121C113.32 106.723 113.52 106.242 113.52 105.68V85.5352C113.52 84.9609 113.32 84.4746 112.922 84.0762C112.523 83.6777 112.043 83.4785 111.48 83.4785V83.1973H121.746C123.586 83.1973 125.291 83.5254 126.861 84.1816C128.361 84.8027 129.662 85.6875 130.764 86.8359ZM121.746 107.438C123.293 107.438 124.646 107.104 125.807 106.436C126.967 105.768 127.934 104.871 128.707 103.746C129.48 102.621 130.061 101.355 130.447 99.9492C130.834 98.5312 131.027 97.084 131.027 95.6074C131.027 94.1191 130.834 92.6719 130.447 91.2656C130.061 89.8594 129.48 88.5938 128.707 87.4688C127.934 86.3438 126.967 85.4473 125.807 84.7793C124.646 84.0996 123.293 83.7598 121.746 83.7598H116.648V107.438H121.746ZM153.598 107.438C154.043 107.438 154.436 107.291 154.775 106.998C155.115 106.693 155.402 106.354 155.637 105.979C155.871 105.592 156.047 105.252 156.164 104.959C156.293 104.654 156.357 104.502 156.357 104.502H156.533L155.672 108H135.879V107.719C136.453 107.719 136.939 107.52 137.338 107.121C137.736 106.723 137.936 106.242 137.936 105.68V85.5352C137.936 84.9609 137.736 84.4746 137.338 84.0762C136.939 83.6777 136.453 83.4785 135.879 83.4785V83.1973H155.672L156.533 86.6953H156.357C156.357 86.6953 156.293 86.5488 156.164 86.2559C156.047 85.9512 155.871 85.6113 155.637 85.2363C155.402 84.8496 155.115 84.5098 154.775 84.2168C154.436 83.9121 154.043 83.7598 153.598 83.7598H141.064V95.3086H148.764C149.115 95.3086 149.408 95.2324 149.643 95.0801C149.877 94.9277 150.059 94.7402 150.188 94.5176C150.328 94.2949 150.434 94.0781 150.504 93.8672C150.574 93.6445 150.615 93.457 150.627 93.3047C150.65 93.1523 150.662 93.0762 150.662 93.0762H150.838V98.1035H150.662C150.662 98.1035 150.65 98.0273 150.627 97.875C150.615 97.7227 150.574 97.541 150.504 97.3301C150.434 97.1074 150.328 96.8848 150.188 96.6621C150.059 96.4395 149.877 96.252 149.643 96.0996C149.408 95.9473 149.115 95.8711 148.764 95.8711H141.064V107.438H153.598ZM174.867 90.2109H174.691C174.691 90.2109 174.75 90.0117 174.867 89.6133C174.996 89.2031 175.09 88.7051 175.148 88.1191C175.207 87.5215 175.143 86.9238 174.955 86.3262C174.779 85.7285 174.398 85.2246 173.812 84.8145C172.898 84.2871 171.955 83.9414 170.982 83.7773C170.021 83.6016 169.131 83.5137 168.311 83.5137C166.482 83.5137 165.047 83.7891 164.004 84.3398C162.973 84.8789 162.299 85.5762 161.982 86.4316C161.666 87.2871 161.695 88.2012 162.07 89.1738C162.445 90.1348 163.137 91.0488 164.145 91.916C165.164 92.7832 166.482 93.5039 168.1 94.0781C168.1 94.0781 168.117 94.084 168.152 94.0957C168.199 94.1074 168.252 94.125 168.311 94.1484C168.369 94.1719 168.422 94.1953 168.469 94.2188C168.516 94.2305 168.545 94.2363 168.557 94.2363C171.264 95.1152 173.221 96.1465 174.428 97.3301C175.635 98.502 176.35 99.6504 176.572 100.775C176.795 101.9 176.783 102.826 176.537 103.553C176.139 104.924 175.219 106.025 173.777 106.857C172.113 107.783 169.939 108.246 167.256 108.246C166.365 108.246 165.387 108.152 164.32 107.965C163.266 107.777 162.246 107.391 161.262 106.805C160.277 106.219 159.434 105.334 158.73 104.15H158.748L160.699 100.986H160.875C160.875 100.986 160.811 101.186 160.682 101.584C160.564 101.982 160.477 102.475 160.418 103.061C160.359 103.646 160.412 104.238 160.576 104.836C160.752 105.422 161.121 105.92 161.684 106.33C162.598 106.869 163.547 107.232 164.531 107.42C165.516 107.596 166.424 107.684 167.256 107.684C169.072 107.684 170.502 107.414 171.545 106.875C172.588 106.324 173.268 105.621 173.584 104.766C173.9 103.91 173.871 103.002 173.496 102.041C173.121 101.068 172.424 100.148 171.404 99.2812C170.396 98.4141 169.078 97.6934 167.449 97.1191C167.449 97.1191 167.426 97.1133 167.379 97.1016C167.344 97.0898 167.297 97.0723 167.238 97.0488C167.191 97.0254 167.145 97.0078 167.098 96.9961C167.051 96.9727 167.016 96.9609 166.992 96.9609C164.285 96.082 162.328 95.0566 161.121 93.8848C159.926 92.7012 159.217 91.5469 158.994 90.4219C158.771 89.2969 158.777 88.3652 159.012 87.627C159.422 86.2676 160.348 85.1719 161.789 84.3398C163.441 83.4141 165.615 82.9512 168.311 82.9512C169.189 82.9512 170.162 83.0449 171.229 83.2324C172.295 83.4199 173.32 83.8066 174.305 84.3926C175.289 84.9785 176.133 85.8574 176.836 87.0293L176.818 87.0469L174.867 90.2109ZM179.016 83.4785V83.1973H186.24V83.4785C185.678 83.4785 185.197 83.6777 184.799 84.0762C184.4 84.4746 184.201 84.9609 184.201 85.5352V105.68C184.201 106.242 184.4 106.723 184.799 107.121C185.197 107.52 185.678 107.719 186.24 107.719V108H179.016V107.719C179.578 107.719 180.059 107.52 180.457 107.121C180.855 106.723 181.055 106.242 181.055 105.68V85.5352C181.055 84.9609 180.855 84.4746 180.457 84.0762C180.059 83.6777 179.578 83.4785 179.016 83.4785ZM205.875 95.4316V95.1504H213.1V95.4316C212.537 95.4316 212.057 95.6309 211.658 96.0293C211.26 96.4277 211.061 96.9082 211.061 97.4707V108L207.932 106.453C205.822 107.672 203.561 108.281 201.146 108.281C199.389 108.281 197.713 107.965 196.119 107.332C194.537 106.688 193.119 105.768 191.865 104.572C190.623 103.354 189.668 101.977 189 100.441C188.344 98.9062 188.016 97.2949 188.016 95.6074C188.016 93.9082 188.344 92.291 189 90.7559C189.668 89.2207 190.623 87.8496 191.865 86.6426C193.119 85.4355 194.537 84.5156 196.119 83.8828C197.713 83.25 199.389 82.9336 201.146 82.9336C203.818 82.9336 206.297 83.6719 208.582 85.1484C208.828 85.3125 209.057 85.4121 209.268 85.4473C209.479 85.4824 209.66 85.4824 209.812 85.4473C209.977 85.4121 210.1 85.3711 210.182 85.3242C210.275 85.2656 210.322 85.2363 210.322 85.2363L208.863 89.7012H208.688C208.688 89.7012 208.717 89.5254 208.775 89.1738C208.846 88.8105 208.863 88.3711 208.828 87.8555C208.793 87.3281 208.646 86.8008 208.389 86.2734C208.143 85.7461 207.721 85.3008 207.123 84.9375C205.248 83.9648 203.256 83.4785 201.146 83.4785C199.412 83.4785 197.912 83.7949 196.646 84.4277C195.393 85.0605 194.355 85.9336 193.535 87.0469C192.727 88.1484 192.123 89.4316 191.725 90.8965C191.338 92.3613 191.145 93.9316 191.145 95.6074C191.145 97.2715 191.338 98.8359 191.725 100.301C192.123 101.766 192.727 103.055 193.535 104.168C194.355 105.27 195.393 106.137 196.646 106.77C197.912 107.402 199.412 107.719 201.146 107.719C202.541 107.719 203.889 107.502 205.189 107.068C205.506 106.975 205.816 106.863 206.121 106.734C206.133 106.734 206.139 106.734 206.139 106.734C206.912 106.348 207.51 105.867 207.932 105.293V97.4707C207.932 96.9082 207.732 96.4277 207.334 96.0293C206.936 95.6309 206.449 95.4316 205.875 95.4316ZM234.896 83.1973H239.52V83.4961C238.957 83.4961 238.477 83.6953 238.078 84.0938C237.68 84.4805 237.48 84.9551 237.48 85.5176V103.834V108H236.918V107.982L217.811 85.6406V105.68C217.811 106.242 218.01 106.723 218.408 107.121C218.807 107.52 219.287 107.719 219.85 107.719V108H215.227V107.719C215.789 107.719 216.27 107.52 216.668 107.121C217.066 106.723 217.266 106.242 217.266 105.68V85.5176C217.266 84.9551 217.125 84.5273 216.844 84.2344C216.562 83.9414 216.258 83.7422 215.93 83.6367C215.602 83.5312 215.367 83.4785 215.227 83.4785V83.1973H215.719H219.85L236.918 103.166V85.5176C236.918 84.9551 236.719 84.4746 236.32 84.0762C235.922 83.6777 235.447 83.4785 234.896 83.4785V83.1973Z" fill="#FEE3E1"/>
</svg>
